<svg version="1.0" xmlns="http://www.w3.org/2000/svg" width="96" height="96" viewBox="0 0 450 450">
  <path fill="url(#paint0_linear_7049_40357)" d="M87.888 0.438c-0.7 0.175 -4.313 0.787 -7.912 1.313 -18.638 3.075 -35.6 11.862 -50.362 26.275A96.475 96.475 0 0 0 1.675 79.538c-1.85 9.137 -1.85 281.775 0 290.913 3.862 19.512 12.3 35.425 26.363 49.925a96.5 96.5 0 0 0 51.5 27.95c9.137 1.85 281.775 1.85 290.913 0 19.512 -3.862 35.425 -12.3 49.925 -26.363a96.5 96.5 0 0 0 27.95 -51.5c1.85 -9.137 1.85 -281.775 0 -290.913a96.412 96.412 0 0 0 -27.95 -51.5C406.487 14.513 392.688 6.963 372.738 2.038 367.475 0.7 354.025 0.525 228.075 0.35 151.7 0.263 88.587 0.263 87.888 0.438zM240.375 79.975"/>
  <path fill="none" d="M89.65 225.438c0 74.513 60.4 134.912 134.912 134.912 74.513 0 134.912 -60.4 134.912 -134.912S299.075 90.525 224.563 90.525c-74.513 0 -134.912 60.4 -134.912 134.912Z" stroke="#fff" stroke-width="22.851551342015945"/>
  <path fill="none" d="M260.188 319.625c-54.825 0 -99.275 -42.175 -99.275 -94.188s44.45 -94.188 99.275 -94.188 99.275 42.163 99.275 94.188c0 52.012 -44.45 94.188 -99.275 94.188Z" stroke="#fff" stroke-width="22.851551342015945"/>
  <path fill="none" d="M298.375 283.975c-33.125 0 -61.087 -25.638 -61.087 -58.55 0 -32.9 27.963 -58.55 61.087 -58.55 33.125 0 61.087 25.638 61.087 58.55s-27.975 58.55 -61.087 58.55Z" stroke="#fff" stroke-width="22.851551342015945"/>
  <defs>
   <linearGradient id="paint0_linear_7049_40357" x1="256" y1="0" x2="256" y2="512" gradientUnits="userSpaceOnUse">
<stop stop-color="#070104"/>
<stop offset="1" stop-color="#460538"/>
</linearGradient>
<linearGradient id="paint1_linear_7049_40357" x1="256" y1="0" x2="256" y2="512" gradientUnits="userSpaceOnUse">
<stop stop-color="#070104"/>
<stop offset="1" stop-color="#460538"/>
</linearGradient>
  </defs>
</svg>
