<svg xmlns="http://www.w3.org/2000/svg" viewBox="0 0 48 48" width="48" height="48" fill="#000">
  <style>
    @media (prefers-color-scheme: dark){path{fill:#fff}#B,#RP,#Z{fill:#000}}
  </style>
  <g fill="none">
    <path vector-effect="non-scaling-stroke" d="M23.301 16.221q0.213 -0.375 0.561 -0.726c0.732 -0.738 1.527 -1.638 2.46 -2.55q0.231 -0.225 -0.165 -0.231 -5.187 -0.096 -10.38 -0.051a0.048 0.048 0 0 0 -0.048 0.048c-0.015 7.188 -0.048 11.238 0.09 16.002q0.003 0.099 0.072 0.027l11.862 -12.204q0.033 -0.033 -0.015 -0.036 -1.623 -0.024 -3.27 -0.081 -0.711 -0.024 -1.146 -0.15a0.039 0.036 22.3 0 1 -0.024 -0.054"/>
    <path vector-effect="non-scaling-stroke" d="M30.096 20.103c-0.012 -0.315 0.84 -1.173 1.077 -1.422q2.856 -3.015 5.763 -5.982 0.039 -0.042 -0.018 -0.042h-8.742a0.111 0.108 20.9 0 0 -0.081 0.033l-1.926 2.085q-0.069 0.078 0.036 0.078 1.71 0.015 3.396 0.078 0.456 0.018 0.912 0.084 0.216 0.033 0.069 0.192c-2.349 2.559 -4.809 4.995 -7.134 7.557q-0.072 0.081 0.036 0.09 0.753 0.072 1.509 0.039 1.845 -0.075 3.699 -0.138a0.129 0.117 19.8 0 0 0.081 -0.033l2.49 -2.481q0.03 -0.03 -0.015 -0.033l-1.101 -0.057a0.057 0.054 -89.5 0 1 -0.051 -0.054m2.49 13.371a0.033 0.033 0 0 0 0.033 -0.033c0.021 -4.263 0.123 -8.544 0.018 -12.828q-0.003 -0.12 -0.09 -0.036 -0.813 0.798 -1.65 1.671c-4.041 4.197 -8.136 8.346 -12.129 12.585 -0.153 0.162 -0.297 0.363 -0.447 0.534q-0.06 0.069 0.033 0.069h3.444a0.111 0.111 -67.2 0 0 0.078 -0.033l1.884 -1.896a0.111 0.108 22.8 0 1 0.081 -0.033c0.99 0.033 2.247 -0.003 2.964 -0.006q2.85 -0.012 5.784 0.003m-11.748 -8.112 -8.664 8.961q-0.534 0.552 -1.065 1.056 -0.06 0.057 0.021 0.057h3.561a0.111 0.111 21.7 0 0 0.081 -0.036l8.382 -8.688a0.114 0.108 -66.4 0 1 0.081 -0.036h1.713a0.123 0.108 20.2 0 0 0.081 -0.03q1.2 -1.143 2.181 -2.25 0.195 -0.219 -0.099 -0.228 -2.583 -0.078 -4.992 -0.054a0.12 0.114 -66.2 0 0 -0.081 0.033q-0.609 0.594 -1.203 1.209m-0.435 -10.203q-1.017 -0.162 -2.07 -0.015a0.159 0.159 -89.8 0 0 -0.138 0.135q-0.087 0.585 -0.057 1.221a0.057 0.057 2.9 0 0 0.048 0.054c1.107 0.165 1.704 -0.444 2.256 -1.299a0.063 0.063 -69.1 0 0 -0.042 -0.096m0.936 4.092q-0.42 -0.099 -0.894 -0.102 -1.128 -0.009 -2.247 0.006a0.048 0.048 -89.4 0 0 -0.048 0.048q-0.045 1.605 0.06 3.249 0.015 0.243 0.192 0.075 1.521 -1.44 2.982 -3.153a0.075 0.075 26.6 0 0 -0.042 -0.123"/>
    <path vector-effect="non-scaling-stroke" d="M26.565 30.846q1.737 0.102 3.432 0.06a0.051 0.048 -90 0 0 0.048 -0.048c0.006 -1.113 0.09 -2.337 -0.069 -3.438q-0.03 -0.21 -0.189 -0.066 -1.728 1.584 -3.279 3.351 -0.114 0.132 0.06 0.141"/>
  </g>
  <path d="M9.006 0h30c4.965 0.291 8.73 4.062 8.994 9.03v30c-0.339 4.953 -4.053 8.724 -9.03 8.97H9.018C4.044 47.754 0.363 43.989 0 39.042V8.994C0.279 4.035 4.023 0.312 9.006 0Zm14.295 16.221q0.213 -0.375 0.561 -0.726c0.732 -0.738 1.527 -1.638 2.46 -2.55q0.231 -0.225 -0.165 -0.231 -5.187 -0.096 -10.38 -0.051a0.048 0.048 0 0 0 -0.048 0.048c-0.015 7.188 -0.048 11.238 0.09 16.002q0.003 0.099 0.072 0.027l11.862 -12.204q0.033 -0.033 -0.015 -0.036 -1.623 -0.024 -3.27 -0.081 -0.711 -0.024 -1.146 -0.15a0.039 0.036 22.3 0 1 -0.024 -0.054Zm6.795 3.882c-0.012 -0.315 0.84 -1.173 1.077 -1.422q2.856 -3.015 5.763 -5.982 0.039 -0.042 -0.018 -0.042h-8.742a0.111 0.108 20.9 0 0 -0.081 0.033l-1.926 2.085q-0.069 0.078 0.036 0.078 1.71 0.015 3.396 0.078 0.456 0.018 0.912 0.084 0.216 0.033 0.069 0.192c-2.349 2.559 -4.809 4.995 -7.134 7.557q-0.072 0.081 0.036 0.09 0.753 0.072 1.509 0.039 1.845 -0.075 3.699 -0.138a0.129 0.117 19.8 0 0 0.081 -0.033l2.49 -2.481q0.03 -0.03 -0.015 -0.033l-1.101 -0.057a0.057 0.054 -89.5 0 1 -0.051 -0.054Zm2.49 13.371a0.033 0.033 0 0 0 0.033 -0.033c0.021 -4.263 0.123 -8.544 0.018 -12.828q-0.003 -0.12 -0.09 -0.036 -0.813 0.798 -1.65 1.671c-4.041 4.197 -8.136 8.346 -12.129 12.585 -0.153 0.162 -0.297 0.363 -0.447 0.534q-0.06 0.069 0.033 0.069h3.444a0.111 0.111 -67.2 0 0 0.078 -0.033l1.884 -1.896a0.111 0.108 22.8 0 1 0.081 -0.033c0.99 0.033 2.247 -0.003 2.964 -0.006q2.85 -0.012 5.784 0.003Zm-11.748 -8.112 -8.664 8.961q-0.534 0.552 -1.065 1.056 -0.06 0.057 0.021 0.057h3.561a0.111 0.111 21.7 0 0 0.081 -0.036l8.382 -8.688a0.114 0.108 -66.4 0 1 0.081 -0.036h1.713a0.123 0.108 20.2 0 0 0.081 -0.03q1.2 -1.143 2.181 -2.25 0.195 -0.219 -0.099 -0.228 -2.583 -0.078 -4.992 -0.054a0.12 0.114 -66.2 0 0 -0.081 0.033q-0.609 0.594 -1.203 1.209Z"/>
  <path fill="#fff" id="B" d="M23.325 16.272q0.435 0.126 1.146 0.15 1.647 0.054 3.27 0.081 0.048 0 0.015 0.036L15.894 28.74q-0.069 0.072 -0.072 -0.027c-0.138 -4.764 -0.105 -8.814 -0.09 -16.002a0.048 0.048 0 0 1 0.048 -0.048q5.193 -0.045 10.38 0.051 0.396 0.009 0.165 0.231c-0.933 0.912 -1.728 1.812 -2.46 2.55q-0.348 0.348 -0.561 0.726a0.039 0.036 22.3 0 0 0.024 0.054Zm-2.919 -1.113q-1.017 -0.162 -2.07 -0.015a0.159 0.159 -89.8 0 0 -0.138 0.135q-0.087 0.585 -0.057 1.221a0.057 0.057 2.9 0 0 0.048 0.054c1.107 0.165 1.704 -0.444 2.256 -1.299a0.063 0.063 -69.1 0 0 -0.042 -0.096Zm0.936 4.092q-0.42 -0.099 -0.894 -0.102 -1.128 -0.009 -2.247 0.006a0.048 0.048 -89.4 0 0 -0.048 0.048q-0.045 1.605 0.06 3.249 0.015 0.243 0.192 0.075 1.521 -1.44 2.982 -3.153a0.075 0.075 26.6 0 0 -0.042 -0.123Z"/>
  <path fill="#fff" id="Z" d="m30.147 20.157 1.101 0.057q0.045 0.003 0.015 0.033l-2.49 2.481a0.129 0.117 19.8 0 1 -0.081 0.033q-1.854 0.063 -3.699 0.138 -0.756 0.03 -1.509 -0.039 -0.108 -0.009 -0.036 -0.09c2.328 -2.562 4.785 -5.001 7.134 -7.557q0.147 -0.159 -0.069 -0.192 -0.453 -0.069 -0.912 -0.084 -1.686 -0.063 -3.396 -0.078 -0.105 0 -0.036 -0.078l1.926 -2.085a0.111 0.108 20.9 0 1 0.081 -0.033h8.742q0.057 0 0.018 0.042 -2.907 2.967 -5.763 5.982c-0.237 0.249 -1.089 1.11 -1.077 1.422a0.057 0.054 -89.5 0 0 0.051 0.054Z"/>
  <path d="M20.406 15.159a0.063 0.063 -69.1 0 1 0.042 0.096c-0.552 0.855 -1.149 1.464 -2.256 1.299a0.057 0.057 2.9 0 1 -0.048 -0.054q-0.03 -0.636 0.057 -1.221a0.159 0.159 -89.8 0 1 0.138 -0.135q1.053 -0.144 2.07 0.015Zm0.936 4.092a0.075 0.075 26.6 0 1 0.042 0.123q-1.458 1.713 -2.982 3.153 -0.177 0.168 -0.192 -0.075 -0.105 -1.644 -0.06 -3.249a0.048 0.048 -89.4 0 1 0.048 -0.048q1.122 -0.015 2.247 -0.006 0.474 0.006 0.894 0.102Z"/>
  <path fill="#fff" id="RP" d="M32.586 33.474q-2.934 -0.015 -5.784 -0.003c-0.717 0.003 -1.974 0.039 -2.964 0.006a0.111 0.108 22.8 0 0 -0.081 0.033l-1.884 1.896a0.111 0.111 -67.2 0 1 -0.078 0.033H18.351q-0.093 0 -0.033 -0.069c0.15 -0.174 0.294 -0.375 0.447 -0.534 3.996 -4.239 8.091 -8.388 12.129 -12.585q0.84 -0.873 1.65 -1.671 0.087 -0.084 0.09 0.036c0.105 4.284 0.003 8.565 -0.018 12.828a0.033 0.033 0 0 1 -0.033 0.033Zm-6.021 -2.628q1.737 0.102 3.432 0.06a0.051 0.048 -90 0 0 0.048 -0.048c0.006 -1.113 0.09 -2.337 -0.069 -3.438q-0.03 -0.21 -0.189 -0.066 -1.728 1.584 -3.279 3.351 -0.114 0.132 0.06 0.141Zm-5.727 -5.484q0.594 -0.615 1.203 -1.209a0.12 0.114 -66.2 0 1 0.081 -0.033q2.409 -0.024 4.992 0.054 0.294 0.009 0.099 0.228 -0.984 1.107 -2.181 2.25a0.123 0.108 20.2 0 1 -0.081 0.03h-1.713a0.114 0.108 -66.4 0 0 -0.081 0.036L14.775 35.406a0.111 0.111 21.7 0 1 -0.081 0.036H11.133q-0.084 0 -0.021 -0.057 0.531 -0.504 1.065 -1.056l8.664 -8.961Z"/>
  <path d="M26.565 30.846q-0.174 -0.009 -0.06 -0.141 1.551 -1.767 3.279 -3.351 0.156 -0.144 0.189 0.066c0.159 1.098 0.075 2.322 0.069 3.438a0.051 0.048 -90 0 1 -0.048 0.048q-1.692 0.042 -3.432 -0.06Z"/>
</svg>
