<svg xmlns="http://www.w3.org/2000/svg" viewBox="0 0 32 32" width="32" height="32" fill="#000">
  <style>
    @media (prefers-color-scheme: dark){path{fill:#fff}#B,#RP,#Z{fill:#000}}
  </style>
  <g fill="none">
    <path vector-effect="non-scaling-stroke" d="M15.534 10.814q0.142 -0.25 0.374 -0.484c0.488 -0.492 1.018 -1.092 1.64 -1.7q0.154 -0.15 -0.11 -0.154 -3.458 -0.064 -6.92 -0.034a0.032 0.032 0 0 0 -0.032 0.032c-0.01 4.792 -0.032 7.492 0.06 10.668q0.002 0.066 0.048 0.018l7.908 -8.136q0.022 -0.022 -0.01 -0.024 -1.082 -0.016 -2.18 -0.054 -0.474 -0.016 -0.764 -0.1a0.026 0.024 22.3 0 1 -0.016 -0.036"/>
    <path vector-effect="non-scaling-stroke" d="M20.064 13.402c-0.008 -0.21 0.56 -0.782 0.718 -0.948q1.904 -2.01 3.842 -3.988 0.026 -0.028 -0.012 -0.028h-5.828a0.074 0.072 20.9 0 0 -0.054 0.022l-1.284 1.39q-0.046 0.052 0.024 0.052 1.14 0.01 2.264 0.052 0.304 0.012 0.608 0.056 0.144 0.022 0.046 0.128c-1.566 1.706 -3.206 3.33 -4.756 5.038q-0.048 0.054 0.024 0.06 0.502 0.048 1.006 0.026 1.23 -0.05 2.466 -0.092a0.086 0.078 19.8 0 0 0.054 -0.022l1.66 -1.654q0.02 -0.02 -0.01 -0.022l-0.734 -0.038a0.038 0.036 -89.5 0 1 -0.034 -0.036m1.66 8.914a0.022 0.022 0 0 0 0.022 -0.022c0.014 -2.842 0.082 -5.696 0.012 -8.552q-0.002 -0.08 -0.06 -0.024 -0.542 0.532 -1.1 1.114c-2.694 2.798 -5.424 5.564 -8.086 8.39 -0.102 0.108 -0.198 0.242 -0.298 0.356q-0.04 0.046 0.022 0.046h2.296a0.074 0.074 -67.2 0 0 0.052 -0.022l1.256 -1.264a0.074 0.072 22.8 0 1 0.054 -0.022c0.66 0.022 1.498 -0.002 1.976 -0.004q1.9 -0.008 3.856 0.002m-7.832 -5.408 -5.776 5.974q-0.356 0.368 -0.71 0.704 -0.04 0.038 0.014 0.038h2.374a0.074 0.074 21.7 0 0 0.054 -0.024l5.588 -5.792a0.076 0.072 -66.4 0 1 0.054 -0.024h1.142a0.082 0.072 20.2 0 0 0.054 -0.02q0.8 -0.762 1.454 -1.5 0.13 -0.146 -0.066 -0.152 -1.722 -0.052 -3.328 -0.036a0.08 0.076 -66.2 0 0 -0.054 0.022q-0.406 0.396 -0.802 0.806m-0.29 -6.802q-0.678 -0.108 -1.38 -0.01a0.106 0.106 -89.8 0 0 -0.092 0.09q-0.058 0.39 -0.038 0.814a0.038 0.038 2.9 0 0 0.032 0.036c0.738 0.11 1.136 -0.296 1.504 -0.866a0.042 0.042 -69.1 0 0 -0.028 -0.064m0.624 2.728q-0.28 -0.066 -0.596 -0.068 -0.752 -0.006 -1.498 0.004a0.032 0.032 -89.4 0 0 -0.032 0.032q-0.03 1.07 0.04 2.166 0.01 0.162 0.128 0.05 1.014 -0.96 1.988 -2.102a0.05 0.05 26.6 0 0 -0.028 -0.082"/>
    <path vector-effect="non-scaling-stroke" d="M17.71 20.564q1.158 0.068 2.288 0.04a0.034 0.032 -90 0 0 0.032 -0.032c0.004 -0.742 0.06 -1.558 -0.046 -2.292q-0.02 -0.14 -0.126 -0.044 -1.152 1.056 -2.186 2.234 -0.076 0.088 0.04 0.094"/>
  </g>
  <path d="M6.004 0h20c3.31 0.194 5.82 2.708 5.996 6.02v20c-0.226 3.302 -2.702 5.816 -6.02 5.98H6.012C2.696 31.836 0.242 29.326 0 26.028V5.996C0.186 2.69 2.682 0.208 6.004 0Zm9.53 10.814q0.142 -0.25 0.374 -0.484c0.488 -0.492 1.018 -1.092 1.64 -1.7q0.154 -0.15 -0.11 -0.154 -3.458 -0.064 -6.92 -0.034a0.032 0.032 0 0 0 -0.032 0.032c-0.01 4.792 -0.032 7.492 0.06 10.668q0.002 0.066 0.048 0.018l7.908 -8.136q0.022 -0.022 -0.01 -0.024 -1.082 -0.016 -2.18 -0.054 -0.474 -0.016 -0.764 -0.1a0.026 0.024 22.3 0 1 -0.016 -0.036Zm4.53 2.588c-0.008 -0.21 0.56 -0.782 0.718 -0.948q1.904 -2.01 3.842 -3.988 0.026 -0.028 -0.012 -0.028h-5.828a0.074 0.072 20.9 0 0 -0.054 0.022l-1.284 1.39q-0.046 0.052 0.024 0.052 1.14 0.01 2.264 0.052 0.304 0.012 0.608 0.056 0.144 0.022 0.046 0.128c-1.566 1.706 -3.206 3.33 -4.756 5.038q-0.048 0.054 0.024 0.06 0.502 0.048 1.006 0.026 1.23 -0.05 2.466 -0.092a0.086 0.078 19.8 0 0 0.054 -0.022l1.66 -1.654q0.02 -0.02 -0.01 -0.022l-0.734 -0.038a0.038 0.036 -89.5 0 1 -0.034 -0.036Zm1.66 8.914a0.022 0.022 0 0 0 0.022 -0.022c0.014 -2.842 0.082 -5.696 0.012 -8.552q-0.002 -0.08 -0.06 -0.024 -0.542 0.532 -1.1 1.114c-2.694 2.798 -5.424 5.564 -8.086 8.39 -0.102 0.108 -0.198 0.242 -0.298 0.356q-0.04 0.046 0.022 0.046h2.296a0.074 0.074 -67.2 0 0 0.052 -0.022l1.256 -1.264a0.074 0.072 22.8 0 1 0.054 -0.022c0.66 0.022 1.498 -0.002 1.976 -0.004q1.9 -0.008 3.856 0.002Zm-7.832 -5.408 -5.776 5.974q-0.356 0.368 -0.71 0.704 -0.04 0.038 0.014 0.038h2.374a0.074 0.074 21.7 0 0 0.054 -0.024l5.588 -5.792a0.076 0.072 -66.4 0 1 0.054 -0.024h1.142a0.082 0.072 20.2 0 0 0.054 -0.02q0.8 -0.762 1.454 -1.5 0.13 -0.146 -0.066 -0.152 -1.722 -0.052 -3.328 -0.036a0.08 0.076 -66.2 0 0 -0.054 0.022q-0.406 0.396 -0.802 0.806Z"/>
  <path fill="#fff" id="B" d="M15.55 10.848q0.29 0.084 0.764 0.1 1.098 0.036 2.18 0.054 0.032 0 0.01 0.024L10.596 19.16q-0.046 0.048 -0.048 -0.018c-0.092 -3.176 -0.07 -5.876 -0.06 -10.668a0.032 0.032 0 0 1 0.032 -0.032q3.462 -0.03 6.92 0.034 0.264 0.006 0.11 0.154c-0.622 0.608 -1.152 1.208 -1.64 1.7q-0.232 0.232 -0.374 0.484a0.026 0.024 22.3 0 0 0.016 0.036Zm-1.946 -0.742q-0.678 -0.108 -1.38 -0.01a0.106 0.106 -89.8 0 0 -0.092 0.09q-0.058 0.39 -0.038 0.814a0.038 0.038 2.9 0 0 0.032 0.036c0.738 0.11 1.136 -0.296 1.504 -0.866a0.042 0.042 -69.1 0 0 -0.028 -0.064Zm0.624 2.728q-0.28 -0.066 -0.596 -0.068 -0.752 -0.006 -1.498 0.004a0.032 0.032 -89.4 0 0 -0.032 0.032q-0.03 1.07 0.04 2.166 0.01 0.162 0.128 0.05 1.014 -0.96 1.988 -2.102a0.05 0.05 26.6 0 0 -0.028 -0.082Z"/>
  <path fill="#fff" id="Z" d="m20.098 13.438 0.734 0.038q0.03 0.002 0.01 0.022l-1.66 1.654a0.086 0.078 19.8 0 1 -0.054 0.022q-1.236 0.042 -2.466 0.092 -0.504 0.02 -1.006 -0.026 -0.072 -0.006 -0.024 -0.06c1.552 -1.708 3.19 -3.334 4.756 -5.038q0.098 -0.106 -0.046 -0.128 -0.302 -0.046 -0.608 -0.056 -1.124 -0.042 -2.264 -0.052 -0.07 0 -0.024 -0.052l1.284 -1.39a0.074 0.072 20.9 0 1 0.054 -0.022h5.828q0.038 0 0.012 0.028 -1.938 1.978 -3.842 3.988c-0.158 0.166 -0.726 0.74 -0.718 0.948a0.038 0.036 -89.5 0 0 0.034 0.036Z"/>
  <path d="M13.604 10.106a0.042 0.042 -69.1 0 1 0.028 0.064c-0.368 0.57 -0.766 0.976 -1.504 0.866a0.038 0.038 2.9 0 1 -0.032 -0.036q-0.02 -0.424 0.038 -0.814a0.106 0.106 -89.8 0 1 0.092 -0.09q0.702 -0.096 1.38 0.01Zm0.624 2.728a0.05 0.05 26.6 0 1 0.028 0.082q-0.972 1.142 -1.988 2.102 -0.118 0.112 -0.128 -0.05 -0.07 -1.096 -0.04 -2.166a0.032 0.032 -89.4 0 1 0.032 -0.032q0.748 -0.01 1.498 -0.004 0.316 0.004 0.596 0.068Z"/>
  <path fill="#fff" id="RP" d="M21.724 22.316q-1.956 -0.01 -3.856 -0.002c-0.478 0.002 -1.316 0.026 -1.976 0.004a0.074 0.072 22.8 0 0 -0.054 0.022l-1.256 1.264a0.074 0.074 -67.2 0 1 -0.052 0.022h-2.296q-0.062 0 -0.022 -0.046c0.1 -0.116 0.196 -0.25 0.298 -0.356 2.664 -2.826 5.394 -5.592 8.086 -8.39q0.56 -0.582 1.1 -1.114 0.058 -0.056 0.06 0.024c0.07 2.856 0.002 5.71 -0.012 8.552a0.022 0.022 0 0 1 -0.022 0.022Zm-4.014 -1.752q1.158 0.068 2.288 0.04a0.034 0.032 -90 0 0 0.032 -0.032c0.004 -0.742 0.06 -1.558 -0.046 -2.292q-0.02 -0.14 -0.126 -0.044 -1.152 1.056 -2.186 2.234 -0.076 0.088 0.04 0.094Zm-3.818 -3.656q0.396 -0.41 0.802 -0.806a0.08 0.076 -66.2 0 1 0.054 -0.022q1.606 -0.016 3.328 0.036 0.196 0.006 0.066 0.152 -0.656 0.738 -1.454 1.5a0.082 0.072 20.2 0 1 -0.054 0.02h-1.142a0.076 0.072 -66.4 0 0 -0.054 0.024l-5.588 5.792a0.074 0.074 21.7 0 1 -0.054 0.024h-2.374q-0.056 0 -0.014 -0.038 0.354 -0.336 0.71 -0.704l5.776 -5.974Z"/>
  <path d="M17.71 20.564q-0.116 -0.006 -0.04 -0.094 1.034 -1.178 2.186 -2.234 0.104 -0.096 0.126 0.044c0.106 0.732 0.05 1.548 0.046 2.292a0.034 0.032 -90 0 1 -0.032 0.032q-1.128 0.028 -2.288 -0.04Z"/>
</svg>
