<svg xmlns="http://www.w3.org/2000/svg" 
viewBox="0 0 512 512" width="16" height="16"><g stroke-width="2" fill="none" stroke="gray"><path vector-effect="non-scaling-stroke" d="M248.55 173.01q2.28-4.01 5.98-7.73c7.81-7.86 16.3-17.46 26.24-27.19q2.45-2.39-1.77-2.47-55.32-1.01-110.71-.54a.5.5 0 0 0-.5.5c-.16 76.67-.51 119.86.96 170.69q.03 1.07.78.3l126.52-130.18q.35-.36-.15-.37-17.32-.27-34.89-.85-7.57-.25-12.21-1.59a.4.39 22.3 0 1-.25-.57"/><path vector-effect="non-scaling-stroke" d="M321.02 214.43c-.14-3.35 8.95-12.51 11.48-15.18q30.46-32.15 61.47-63.81.43-.44-.18-.44h-93.24a1.19 1.14 20.9 0 0-.85.36l-20.53 22.25q-.75.83.37.84 18.24.16 36.21.83 4.88.18 9.72.91 2.3.35.73 2.06c-25.06 27.28-51.28 53.27-76.1 80.61q-.77.85.38.96 8.03.76 16.1.43 19.67-.81 39.46-1.47a1.37 1.25 19.8 0 0 .87-.36l26.55-26.45q.32-.31-.15-.34l-11.75-.62a.6.57-89.5 0 1-.54-.58m26.57 142.64a.36.36 0 0 0 .36-.36c.21-45.47 1.3-91.14.18-136.83q-.03-1.29-.96-.39-8.66 8.52-17.61 17.82c-43.09 44.77-86.77 89.02-129.38 134.24-1.62 1.72-3.18 3.87-4.77 5.71q-.64.74.34.74l36.74.01a1.2 1.18-67.2 0 0 .84-.35l20.11-20.23a1.18 1.16 22.8 0 1 .85-.34c10.56.36 23.97-.03 31.61-.05q30.39-.12 61.69.03m-125.31-86.54-92.4 95.6q-5.69 5.88-11.37 11.26-.65.62.24.62l37.98-.01a1.18 1.18 21.7 0 0 .86-.37l89.42-92.66a1.23 1.15-66.4 0 1 .85-.37l18.28.01a1.3 1.14 20.2 0 0 .86-.33q12.79-12.19 23.27-24.01 2.07-2.33-1.05-2.43-27.54-.84-53.24-.57a1.28 1.22-66.2 0 0-.87.36q-6.48 6.33-12.83 12.9m-4.63-108.83q-10.85-1.72-22.07-.17a1.7 1.7-89.8 0 0-1.46 1.45q-.92 6.24-.61 13.04a.6.6 2.9 0 0 .52.57c11.81 1.75 18.18-4.75 24.08-13.86a.67.67-69.1 0 0-.46-1.03m9.97 43.64q-4.49-1.05-9.55-1.1-12.02-.11-23.98.06a.52.51-89.4 0 0-.51.51q-.48 17.12.64 34.67.16 2.58 2.04.8 16.24-15.36 31.8-33.63a.81.81 26.6 0 0-.44-1.31"/><path vector-effect="non-scaling-stroke" d="M283.36 329.03q18.54 1.1 36.6.64a.53.52-90 0 0 .51-.52c.05-11.88.97-24.94-.74-36.66q-.33-2.25-2.01-.71-18.44 16.89-34.99 35.74-1.22 1.4.63 1.51"/></g><path d="M96.06 0h320c52.95 3.1 93.12 43.33 95.94 96.31v320c-3.63 52.83-43.22 93.06-96.31 95.69H96.19C43.14 509.38 3.87 469.23 0 416.44V95.94C2.99 43.05 42.92 3.32 96.06 0Zm152.49 173.01q2.28-4.01 5.98-7.73c7.81-7.86 16.3-17.46 26.24-27.19q2.45-2.39-1.77-2.47-55.32-1.01-110.71-.54a.5.5 0 0 0-.5.5c-.16 76.67-.51 119.86.96 170.69q.03 1.07.78.3l126.52-130.18q.35-.36-.15-.37-17.32-.27-34.89-.85-7.57-.25-12.21-1.59a.4.39 22.3 0 1-.25-.57Zm72.47 41.42c-.14-3.35 8.95-12.51 11.48-15.18q30.46-32.15 61.47-63.81.43-.44-.18-.44h-93.24a1.19 1.14 20.9 0 0-.85.36l-20.53 22.25q-.75.83.37.84 18.24.16 36.21.83 4.88.18 9.72.91 2.3.35.73 2.06c-25.06 27.28-51.28 53.27-76.1 80.61q-.77.85.38.96 8.03.76 16.1.43 19.67-.81 39.46-1.47a1.37 1.25 19.8 0 0 .87-.36l26.55-26.45q.32-.31-.15-.34l-11.75-.62a.6.57-89.5 0 1-.54-.58Zm26.57 142.64a.36.36 0 0 0 .36-.36c.21-45.47 1.3-91.14.18-136.83q-.03-1.29-.96-.39-8.66 8.52-17.61 17.82c-43.09 44.77-86.77 89.02-129.38 134.24-1.62 1.72-3.18 3.87-4.77 5.71q-.64.74.34.74l36.74.01a1.2 1.18-67.2 0 0 .84-.35l20.11-20.23a1.18 1.16 22.8 0 1 .85-.34c10.56.36 23.97-.03 31.61-.05q30.39-.12 61.69.03Zm-125.31-86.54-92.4 95.6q-5.69 5.88-11.37 11.26-.65.62.24.62l37.98-.01a1.18 1.18 21.7 0 0 .86-.37l89.42-92.66a1.23 1.15-66.4 0 1 .85-.37l18.28.01a1.3 1.14 20.2 0 0 .86-.33q12.79-12.19 23.27-24.01 2.07-2.33-1.05-2.43-27.54-.84-53.24-.57a1.28 1.22-66.2 0 0-.87.36q-6.48 6.33-12.83 12.9Z"/><path fill="#fff" d="M248.8 173.58q4.64 1.34 12.21 1.59 17.57.58 34.89.85.5.01.15.37L169.53 306.57q-.75.77-.78-.3c-1.47-50.83-1.12-94.02-.96-170.69a.5.5 0 0 1 .5-.5q55.39-.47 110.71.54 4.22.08 1.77 2.47c-9.94 9.73-18.43 19.33-26.24 27.19q-3.7 3.72-5.98 7.73a.4.39 22.3 0 0 .25.57Zm-31.15-11.88q-10.85-1.72-22.07-.17a1.7 1.7-89.8 0 0-1.46 1.45q-.92 6.24-.61 13.04a.6.6 2.9 0 0 .52.57c11.81 1.75 18.18-4.75 24.08-13.86a.67.67-69.1 0 0-.46-1.03Zm9.97 43.64q-4.49-1.05-9.55-1.1-12.02-.11-23.98.06a.52.51-89.4 0 0-.51.51q-.48 17.12.64 34.67.16 2.58 2.04.8 16.24-15.36 31.8-33.63a.81.81 26.6 0 0-.44-1.31Z"/><path fill="#fff" d="m321.56 215.01 11.75.62q.47.03.15.34l-26.55 26.45a1.37 1.25 19.8 0 1-.87.36q-19.79.66-39.46 1.47-8.07.33-16.1-.43-1.15-.11-.38-.96c24.82-27.34 51.04-53.33 76.1-80.61q1.57-1.71-.73-2.06-4.84-.73-9.72-.91-17.97-.67-36.21-.83-1.12-.01-.37-.84l20.53-22.25a1.19 1.14 20.9 0 1 .85-.36h93.24q.61 0 .18.44-31.01 31.66-61.47 63.81c-2.53 2.67-11.62 11.83-11.48 15.18a.6.57-89.5 0 0 .54.58Z"/><path d="M217.65 161.7a.67.67-69.1 0 1 .46 1.03c-5.9 9.11-12.27 15.61-24.08 13.86a.6.6 2.9 0 1-.52-.57q-.31-6.8.61-13.04a1.7 1.7-89.8 0 1 1.46-1.45q11.22-1.55 22.07.17Zm9.97 43.64a.81.81 26.6 0 1 .44 1.31q-15.56 18.27-31.8 33.63-1.88 1.78-2.04-.8-1.12-17.55-.64-34.67a.52.51-89.4 0 1 .51-.51q11.96-.17 23.98-.06 5.06.05 9.55 1.1Z"/><path fill="#fff" d="M347.59 357.07q-31.3-.15-61.69-.03c-7.64.02-21.05.41-31.61.05a1.18 1.16 22.8 0 0-.85.34l-20.11 20.23a1.2 1.18-67.2 0 1-.84.35l-36.74-.01q-.98 0-.34-.74c1.59-1.84 3.15-3.99 4.77-5.71 42.61-45.22 86.29-89.47 129.38-134.24q8.95-9.3 17.61-17.82.93-.9.96.39c1.12 45.69.03 91.36-.18 136.83a.36.36 0 0 1-.36.36Zm-64.23-28.04q18.54 1.1 36.6.64a.53.52-90 0 0 .51-.52c.05-11.88.97-24.94-.74-36.66q-.33-2.25-2.01-.71-18.44 16.89-34.99 35.74-1.22 1.4.63 1.51Zm-61.08-58.5q6.35-6.57 12.83-12.9a1.28 1.22-66.2 0 1 .87-.36q25.7-.27 53.24.57 3.12.1 1.05 2.43-10.48 11.82-23.27 24.01a1.3 1.14 20.2 0 1-.86.33l-18.28-.01a1.23 1.15-66.4 0 0-.85.37l-89.42 92.66a1.18 1.18 21.7 0 1-.86.37l-37.98.01q-.89 0-.24-.62 5.68-5.38 11.37-11.26l92.4-95.6Z"/><path d="M283.36 329.03q-1.85-.11-.63-1.51 16.55-18.85 34.99-35.74 1.68-1.54 2.01.71c1.71 11.72.79 24.78.74 36.66a.53.52-90 0 1-.51.52q-18.06.46-36.6-.64Z"/></svg>
