<svg xmlns="http://www.w3.org/2000/svg" viewBox="0 0 192 192" width="192" height="192">
  <!-- <style>
    @media (prefers-color-scheme: dark) {
        path{ fill: #000 }
        #B { fill: white }
        #z { fill: white }
        #RP { fill: white }
    }
  </style> -->
<g fill="none"><path vector-effect="non-scaling-stroke" d="M93.204 64.884q0.852 -1.5 2.244 -2.904c2.928 -2.952 6.108 -6.552 9.84 -10.2q0.924 -0.9 -0.66 -0.924 -20.748 -0.384 -41.52 -0.204a0.192 0.192 0 0 0 -0.192 0.192c-0.06 28.752 -0.192 44.952 0.36 64.008q0.012 0.396 0.288 0.108l47.448 -48.816q0.132 -0.132 -0.06 -0.144 -6.492 -0.096 -13.08 -0.324 -2.844 -0.096 -4.584 -0.6a0.156 0.144 22.3 0 1 -0.096 -0.216"/><path vector-effect="non-scaling-stroke" d="M120.384 80.412c-0.048 -1.26 3.36 -4.692 4.308 -5.688q11.424 -12.06 23.052 -23.928 0.156 -0.168 -0.072 -0.168H112.704a0.444 0.432 20.9 0 0 -0.324 0.132l-7.704 8.34q-0.276 0.312 0.144 0.312 6.84 0.06 13.584 0.312 1.824 0.072 3.648 0.336 0.864 0.132 0.276 0.768c-9.396 10.236 -19.236 19.98 -28.536 30.228q-0.288 0.324 0.144 0.36 3.012 0.288 6.036 0.156 7.38 -0.3 14.796 -0.552a0.516 0.468 19.8 0 0 0.324 -0.132l9.96 -9.924q0.12 -0.12 -0.06 -0.132l-4.404 -0.228a0.228 0.216 -89.5 0 1 -0.204 -0.216m9.96 53.484a0.132 0.132 0 0 0 0.132 -0.132c0.084 -17.052 0.492 -34.176 0.072 -51.312q-0.012 -0.48 -0.36 -0.144 -3.252 3.192 -6.6 6.684c-16.164 16.788 -32.544 33.384 -48.516 50.34 -0.612 0.648 -1.188 1.452 -1.788 2.136q-0.24 0.276 0.132 0.276h13.776a0.444 0.444 -67.2 0 0 0.312 -0.132l7.536 -7.584a0.444 0.432 22.8 0 1 0.324 -0.132c3.96 0.132 8.988 -0.012 11.856 -0.024q11.4 -0.048 23.136 0.012M83.364 101.412l-34.656 35.844q-2.136 2.208 -4.26 4.224 -0.24 0.228 0.084 0.228h14.244a0.444 0.444 21.7 0 0 0.324 -0.144l33.528 -34.752a0.456 0.432 -66.4 0 1 0.324 -0.144h6.852a0.492 0.432 20.2 0 0 0.324 -0.12q4.8 -4.572 8.724 -9 0.78 -0.876 -0.396 -0.912 -10.332 -0.312 -19.968 -0.216a0.48 0.456 -66.2 0 0 -0.324 0.132q-2.436 2.376 -4.812 4.836m-1.74 -40.812q-4.068 -0.648 -8.28 -0.06a0.636 0.636 -89.8 0 0 -0.552 0.54q-0.348 2.34 -0.228 4.884a0.228 0.228 2.9 0 0 0.192 0.216c4.428 0.66 6.816 -1.776 9.024 -5.196a0.252 0.252 -69.1 0 0 -0.168 -0.384m3.744 16.368q-1.68 -0.396 -3.576 -0.408 -4.512 -0.036 -8.988 0.024a0.192 0.192 -89.4 0 0 -0.192 0.192q-0.18 6.42 0.24 12.996 0.06 0.972 0.768 0.3 6.084 -5.76 11.928 -12.612a0.3 0.3 26.6 0 0 -0.168 -0.492"/><path vector-effect="non-scaling-stroke" d="M106.26 123.384q6.948 0.408 13.728 0.24a0.204 0.192 -90 0 0 0.192 -0.192c0.024 -4.452 0.36 -9.348 -0.276 -13.752q-0.12 -0.84 -0.756 -0.264 -6.912 6.336 -13.116 13.404 -0.456 0.528 0.24 0.564"/></g><path d="M36.024 0h120c19.86 1.164 34.92 16.248 35.976 36.12v120c-1.356 19.812 -16.212 34.896 -36.12 35.88H36.072C16.176 191.016 1.452 175.956 0 156.168V35.976C1.116 16.14 16.092 1.248 36.024 0Zm57.18 64.884q0.852 -1.5 2.244 -2.904c2.928 -2.952 6.108 -6.552 9.84 -10.2q0.924 -0.9 -0.66 -0.924 -20.748 -0.384 -41.52 -0.204a0.192 0.192 0 0 0 -0.192 0.192c-0.06 28.752 -0.192 44.952 0.36 64.008q0.012 0.396 0.288 0.108l47.448 -48.816q0.132 -0.132 -0.06 -0.144 -6.492 -0.096 -13.08 -0.324 -2.844 -0.096 -4.584 -0.6a0.156 0.144 22.3 0 1 -0.096 -0.216Zm27.18 15.528c-0.048 -1.26 3.36 -4.692 4.308 -5.688q11.424 -12.06 23.052 -23.928 0.156 -0.168 -0.072 -0.168H112.704a0.444 0.432 20.9 0 0 -0.324 0.132l-7.704 8.34q-0.276 0.312 0.144 0.312 6.84 0.06 13.584 0.312 1.824 0.072 3.648 0.336 0.864 0.132 0.276 0.768c-9.396 10.236 -19.236 19.98 -28.536 30.228q-0.288 0.324 0.144 0.36 3.012 0.288 6.036 0.156 7.38 -0.3 14.796 -0.552a0.516 0.468 19.8 0 0 0.324 -0.132l9.96 -9.924q0.12 -0.12 -0.06 -0.132l-4.404 -0.228a0.228 0.216 -89.5 0 1 -0.204 -0.216Zm9.96 53.484a0.132 0.132 0 0 0 0.132 -0.132c0.084 -17.052 0.492 -34.176 0.072 -51.312q-0.012 -0.48 -0.36 -0.144 -3.252 3.192 -6.6 6.684c-16.164 16.788 -32.544 33.384 -48.516 50.34 -0.612 0.648 -1.188 1.452 -1.788 2.136q-0.24 0.276 0.132 0.276h13.776a0.444 0.444 -67.2 0 0 0.312 -0.132l7.536 -7.584a0.444 0.432 22.8 0 1 0.324 -0.132c3.96 0.132 8.988 -0.012 11.856 -0.024q11.4 -0.048 23.136 0.012ZM83.352 101.448l-34.656 35.844q-2.136 2.208 -4.26 4.224 -0.24 0.228 0.084 0.228h14.244a0.444 0.444 21.7 0 0 0.324 -0.144l33.528 -34.752a0.456 0.432 -66.4 0 1 0.324 -0.144h6.852a0.492 0.432 20.2 0 0 0.324 -0.12q4.8 -4.572 8.724 -9 0.78 -0.876 -0.396 -0.912 -10.332 -0.312 -19.968 -0.216a0.48 0.456 -66.2 0 0 -0.324 0.132q-2.436 2.376 -4.812 4.836Z"/><path fill="#fff" ="B" d="M93.3 65.088q1.74 0.504 4.584 0.6 6.588 0.216 13.08 0.324 0.192 0 0.06 0.144L63.576 114.96q-0.276 0.288 -0.288 -0.108c-0.552 -19.056 -0.42 -35.256 -0.36 -64.008a0.192 0.192 0 0 1 0.192 -0.192q20.772 -0.18 41.52 0.204 1.584 0.036 0.66 0.924c-3.732 3.648 -6.912 7.248 -9.84 10.2q-1.392 1.392 -2.244 2.904a0.156 0.144 22.3 0 0 0.096 0.216Zm-11.676 -4.452q-4.068 -0.648 -8.28 -0.06a0.636 0.636 -89.8 0 0 -0.552 0.54q-0.348 2.34 -0.228 4.884a0.228 0.228 2.9 0 0 0.192 0.216c4.428 0.66 6.816 -1.776 9.024 -5.196a0.252 0.252 -69.1 0 0 -0.168 -0.384Zm3.744 16.368q-1.68 -0.396 -3.576 -0.408 -4.512 -0.036 -8.988 0.024a0.192 0.192 -89.4 0 0 -0.192 0.192q-0.18 6.42 0.24 12.996 0.06 0.972 0.768 0.3 6.084 -5.76 11.928 -12.612a0.3 0.3 26.6 0 0 -0.168 -0.492Z"/><path fill="#000" id="z" d="m120.588 80.628 4.404 0.228q0.18 0.012 0.06 0.132l-9.96 9.924a0.516 0.468 19.8 0 1 -0.324 0.132q-7.416 0.252 -14.796 0.552 -3.024 0.12 -6.036 -0.156 -0.432 -0.036 -0.144 -0.36c9.312 -10.248 19.14 -20.004 28.536 -30.228q0.588 -0.636 -0.276 -0.768 -1.812 -0.276 -3.648 -0.336 -6.744 -0.252 -13.584 -0.312 -0.42 0 -0.144 -0.312l7.704 -8.34a0.444 0.432 20.9 0 1 0.324 -0.132h34.968q0.228 0 0.072 0.168 -11.628 11.868 -23.052 23.928c-0.948 0.996 -4.356 4.44 -4.308 5.688a0.228 0.216 -89.5 0 0 0.204 0.216Z"/><path d="M81.624 60.636a0.252 0.252 -69.1 0 1 0.168 0.384c-2.208 3.42 -4.596 5.856 -9.024 5.196a0.228 0.228 2.9 0 1 -0.192 -0.216q-0.12 -2.544 0.228 -4.884a0.636 0.636 -89.8 0 1 0.552 -0.54q4.212 -0.576 8.28 0.06Zm3.744 16.368a0.3 0.3 26.6 0 1 0.168 0.492q-5.832 6.852 -11.928 12.612 -0.708 0.672 -0.768 -0.3 -0.42 -6.576 -0.24 -12.996a0.192 0.192 -89.4 0 1 0.192 -0.192q4.488 -0.06 8.988 -0.024 1.896 0.024 3.576 0.408Z"/><path fill="#000" id="RP" d="M130.344 133.896q-11.736 -0.06 -23.136 -0.012c-2.868 0.012 -7.896 0.156 -11.856 0.024a0.444 0.432 22.8 0 0 -0.324 0.132l-7.536 7.584a0.444 0.444 -67.2 0 1 -0.312 0.132H73.404q-0.372 0 -0.132 -0.276c0.6 -0.696 1.176 -1.5 1.788 -2.136 15.984 -16.956 32.364 -33.552 48.516 -50.34q3.36 -3.492 6.6 -6.684 0.348 -0.336 0.36 0.144c0.42 17.136 0.012 34.26 -0.072 51.312a0.132 0.132 0 0 1 -0.132 0.132Zm-24.084 -10.512q6.948 0.408 13.728 0.24a0.204 0.192 -90 0 0 0.192 -0.192c0.024 -4.452 0.36 -9.348 -0.276 -13.752q-0.12 -0.84 -0.756 -0.264 -6.912 6.336 -13.116 13.404 -0.456 0.528 0.24 0.564ZM83.352 101.448q2.376 -2.46 4.812 -4.836a0.48 0.456 -66.2 0 1 0.324 -0.132q9.636 -0.096 19.968 0.216 1.176 0.036 0.396 0.912 -3.936 4.428 -8.724 9a0.492 0.432 20.2 0 1 -0.324 0.12h-6.852a0.456 0.432 -66.4 0 0 -0.324 0.144l-33.528 34.752a0.444 0.444 21.7 0 1 -0.324 0.144H44.532q-0.336 0 -0.084 -0.228 2.124 -2.016 4.26 -4.224l34.656 -35.844Z"/><path d="M106.26 123.384q-0.696 -0.036 -0.24 -0.564 6.204 -7.068 13.116 -13.404 0.624 -0.576 0.756 0.264c0.636 4.392 0.3 9.288 0.276 13.752a0.204 0.192 -90 0 1 -0.192 0.192q-6.768 0.168 -13.728 -0.24Z"/></svg>