<svg xmlns="http://www.w3.org/2000/svg" viewBox="0 0 16 16" width="16" height="16">
<g stroke-width="2" fill="none" stroke="gray">
<path vector-effect="non-scaling-stroke" d="M248.544 173.024q2.272 -4 5.984 -7.744c7.808 -7.872 16.288 -17.472 26.24 -27.2q2.464 -2.4 -1.76 -2.464 -55.328 -1.024 -110.72 -0.544a0.512 0.512 0 0 0 -0.512 0.512c-0.16 76.672 -0.512 119.872 0.96 170.688q0.032 1.056 0.768 0.288l126.528 -130.176q0.352 -0.352 -0.16 -0.384 -17.312 -0.256 -34.88 -0.864 -7.584 -0.256 -12.224 -1.6a0.416 0.384 22.3 0 1 -0.256 -0.576"/><path vector-effect="non-scaling-stroke" d="M321.024 214.432c-0.128 -3.36 8.96 -12.512 11.488 -15.168q30.464 -32.16 61.472 -63.808 0.416 -0.448 -0.192 -0.448H300.544a1.184 1.152 20.9 0 0 -0.864 0.352l-20.544 22.24q-0.736 0.832 0.384 0.832 18.24 0.16 36.224 0.832 4.864 0.192 9.728 0.896 2.304 0.352 0.736 2.048c-25.056 27.296 -51.296 53.28 -76.096 80.608q-0.768 0.864 0.384 0.96 8.032 0.768 16.096 0.416 19.68 -0.8 39.456 -1.472a1.376 1.248 19.8 0 0 0.864 -0.352l26.56 -26.464q0.32 -0.32 -0.16 -0.352l-11.744 -0.608a0.608 0.576 -89.5 0 1 -0.544 -0.576m26.56 142.624a0.352 0.352 0 0 0 0.352 -0.352c0.224 -45.472 1.312 -91.136 0.192 -136.832q-0.032 -1.28 -0.96 -0.384 -8.672 8.512 -17.6 17.824c-43.104 44.768 -86.784 89.024 -129.376 134.24 -1.632 1.728 -3.168 3.872 -4.768 5.696q-0.64 0.736 0.352 0.736h36.736a1.184 1.184 -67.2 0 0 0.832 -0.352l20.096 -20.224a1.184 1.152 22.8 0 1 0.864 -0.352c10.56 0.352 23.968 -0.032 31.616 -0.064q30.4 -0.128 61.696 0.032M222.304 270.432l-92.416 95.584q-5.696 5.888 -11.36 11.264 -0.64 0.608 0.224 0.608h37.984a1.184 1.184 21.7 0 0 0.864 -0.384l89.408 -92.672a1.216 1.152 -66.4 0 1 0.864 -0.384h18.272a1.312 1.152 20.2 0 0 0.864 -0.32q12.8 -12.192 23.264 -24 2.08 -2.336 -1.056 -2.432 -27.552 -0.832 -53.248 -0.576a1.28 1.216 -66.2 0 0 -0.864 0.352q-6.496 6.336 -12.832 12.896m-4.64 -108.832q-10.848 -1.728 -22.08 -0.16a1.696 1.696 -89.8 0 0 -1.472 1.44q-0.928 6.24 -0.608 13.024a0.608 0.608 2.9 0 0 0.512 0.576c11.808 1.76 18.176 -4.736 24.064 -13.856a0.672 0.672 -69.1 0 0 -0.448 -1.024m9.984 43.648q-4.48 -1.056 -9.536 -1.088 -12.032 -0.096 -23.968 0.064a0.512 0.512 -89.4 0 0 -0.512 0.512q-0.48 17.12 0.64 34.656 0.16 2.592 2.048 0.8 16.224 -15.36 31.808 -33.632a0.8 0.8 26.6 0 0 -0.448 -1.312"/><path vector-effect="non-scaling-stroke" d="M283.36 329.024q18.528 1.088 36.608 0.64a0.544 0.512 -90 0 0 0.512 -0.512c0.064 -11.872 0.96 -24.928 -0.736 -36.672q-0.32 -2.24 -2.016 -0.704 -18.432 16.896 -34.976 35.744 -1.216 1.408 0.64 1.504"/></g><path d="M96.064 0h320c52.96 3.104 93.12 43.328 95.936 96.32v320c-3.616 52.832 -43.232 93.056 -96.32 95.68H96.192C43.136 509.376 3.872 469.216 0 416.448V95.936C2.976 43.04 42.912 3.328 96.064 0Zm152.48 173.024q2.272 -4 5.984 -7.744c7.808 -7.872 16.288 -17.472 26.24 -27.2q2.464 -2.4 -1.76 -2.464 -55.328 -1.024 -110.72 -0.544a0.512 0.512 0 0 0 -0.512 0.512c-0.16 76.672 -0.512 119.872 0.96 170.688q0.032 1.056 0.768 0.288l126.528 -130.176q0.352 -0.352 -0.16 -0.384 -17.312 -0.256 -34.88 -0.864 -7.584 -0.256 -12.224 -1.6a0.416 0.384 22.3 0 1 -0.256 -0.576Zm72.48 41.408c-0.128 -3.36 8.96 -12.512 11.488 -15.168q30.464 -32.16 61.472 -63.808 0.416 -0.448 -0.192 -0.448H300.544a1.184 1.152 20.9 0 0 -0.864 0.352l-20.544 22.24q-0.736 0.832 0.384 0.832 18.24 0.16 36.224 0.832 4.864 0.192 9.728 0.896 2.304 0.352 0.736 2.048c-25.056 27.296 -51.296 53.28 -76.096 80.608q-0.768 0.864 0.384 0.96 8.032 0.768 16.096 0.416 19.68 -0.8 39.456 -1.472a1.376 1.248 19.8 0 0 0.864 -0.352l26.56 -26.464q0.32 -0.32 -0.16 -0.352l-11.744 -0.608a0.608 0.576 -89.5 0 1 -0.544 -0.576Zm26.56 142.624a0.352 0.352 0 0 0 0.352 -0.352c0.224 -45.472 1.312 -91.136 0.192 -136.832q-0.032 -1.28 -0.96 -0.384 -8.672 8.512 -17.6 17.824c-43.104 44.768 -86.784 89.024 -129.376 134.24 -1.632 1.728 -3.168 3.872 -4.768 5.696q-0.64 0.736 0.352 0.736h36.736a1.184 1.184 -67.2 0 0 0.832 -0.352l20.096 -20.224a1.184 1.152 22.8 0 1 0.864 -0.352c10.56 0.352 23.968 -0.032 31.616 -0.064q30.4 -0.128 61.696 0.032ZM222.272 270.528l-92.416 95.584q-5.696 5.888 -11.36 11.264 -0.64 0.608 0.224 0.608h37.984a1.184 1.184 21.7 0 0 0.864 -0.384l89.408 -92.672a1.216 1.152 -66.4 0 1 0.864 -0.384h18.272a1.312 1.152 20.2 0 0 0.864 -0.32q12.8 -12.192 23.264 -24 2.08 -2.336 -1.056 -2.432 -27.552 -0.832 -53.248 -0.576a1.28 1.216 -66.2 0 0 -0.864 0.352q-6.496 6.336 -12.832 12.896Z"/><path fill="#fff" d="M248.8 173.568q4.64 1.344 12.224 1.6 17.568 0.576 34.88 0.864 0.512 0 0.16 0.384L169.536 306.56q-0.736 0.768 -0.768 -0.288c-1.472 -50.816 -1.12 -94.016 -0.96 -170.688a0.512 0.512 0 0 1 0.512 -0.512q55.392 -0.48 110.72 0.544 4.224 0.096 1.76 2.464c-9.952 9.728 -18.432 19.328 -26.24 27.2q-3.712 3.712 -5.984 7.744a0.416 0.384 22.3 0 0 0.256 0.576Zm-31.136 -11.872q-10.848 -1.728 -22.08 -0.16a1.696 1.696 -89.8 0 0 -1.472 1.44q-0.928 6.24 -0.608 13.024a0.608 0.608 2.9 0 0 0.512 0.576c11.808 1.76 18.176 -4.736 24.064 -13.856a0.672 0.672 -69.1 0 0 -0.448 -1.024Zm9.984 43.648q-4.48 -1.056 -9.536 -1.088 -12.032 -0.096 -23.968 0.064a0.512 0.512 -89.4 0 0 -0.512 0.512q-0.48 17.12 0.64 34.656 0.16 2.592 2.048 0.8 16.224 -15.36 31.808 -33.632a0.8 0.8 26.6 0 0 -0.448 -1.312Z"/><path fill="#fff" d="m321.568 215.008 11.744 0.608q0.48 0.032 0.16 0.352l-26.56 26.464a1.376 1.248 19.8 0 1 -0.864 0.352q-19.776 0.672 -39.456 1.472 -8.064 0.32 -16.096 -0.416 -1.152 -0.096 -0.384 -0.96c24.832 -27.328 51.04 -53.344 76.096 -80.608q1.568 -1.696 -0.736 -2.048 -4.832 -0.736 -9.728 -0.896 -17.984 -0.672 -36.224 -0.832 -1.12 0 -0.384 -0.832l20.544 -22.24a1.184 1.152 20.9 0 1 0.864 -0.352h93.248q0.608 0 0.192 0.448 -31.008 31.648 -61.472 63.808c-2.528 2.656 -11.616 11.84 -11.488 15.168a0.608 0.576 -89.5 0 0 0.544 0.576Z"/><path d="M217.664 161.696a0.672 0.672 -69.1 0 1 0.448 1.024c-5.888 9.12 -12.256 15.616 -24.064 13.856a0.608 0.608 2.9 0 1 -0.512 -0.576q-0.32 -6.784 0.608 -13.024a1.696 1.696 -89.8 0 1 1.472 -1.44q11.232 -1.536 22.08 0.16Zm9.984 43.648a0.8 0.8 26.6 0 1 0.448 1.312q-15.552 18.272 -31.808 33.632 -1.888 1.792 -2.048 -0.8 -1.12 -17.536 -0.64 -34.656a0.512 0.512 -89.4 0 1 0.512 -0.512q11.968 -0.16 23.968 -0.064 5.056 0.064 9.536 1.088Z"/><path fill="#fff" d="M347.584 357.056q-31.296 -0.16 -61.696 -0.032c-7.648 0.032 -21.056 0.416 -31.616 0.064a1.184 1.152 22.8 0 0 -0.864 0.352l-20.096 20.224a1.184 1.184 -67.2 0 1 -0.832 0.352H195.744q-0.992 0 -0.352 -0.736c1.6 -1.856 3.136 -4 4.768 -5.696 42.624 -45.216 86.304 -89.472 129.376 -134.24q8.96 -9.312 17.6 -17.824 0.928 -0.896 0.96 0.384c1.12 45.696 0.032 91.36 -0.192 136.832a0.352 0.352 0 0 1 -0.352 0.352Zm-64.224 -28.032q18.528 1.088 36.608 0.64a0.544 0.512 -90 0 0 0.512 -0.512c0.064 -11.872 0.96 -24.928 -0.736 -36.672q-0.32 -2.24 -2.016 -0.704 -18.432 16.896 -34.976 35.744 -1.216 1.408 0.64 1.504ZM222.272 270.528q6.336 -6.56 12.832 -12.896a1.28 1.216 -66.2 0 1 0.864 -0.352q25.696 -0.256 53.248 0.576 3.136 0.096 1.056 2.432 -10.496 11.808 -23.264 24a1.312 1.152 20.2 0 1 -0.864 0.32h-18.272a1.216 1.152 -66.4 0 0 -0.864 0.384l-89.408 92.672a1.184 1.184 21.7 0 1 -0.864 0.384H118.752q-0.896 0 -0.224 -0.608 5.664 -5.376 11.36 -11.264l92.416 -95.584Z"/><path d="M283.36 329.024q-1.856 -0.096 -0.64 -1.504 16.544 -18.848 34.976 -35.744 1.664 -1.536 2.016 0.704c1.696 11.712 0.8 24.768 0.736 36.672a0.544 0.512 -90 0 1 -0.512 0.512q-18.048 0.448 -36.608 -0.64Z"/>
</svg>
