<svg xmlns="http://www.w3.org/2000/svg" viewBox="0 0 16 16" width="16" height="16" fill="#000">
  <style>
    @media (prefers-color-scheme: dark){path{fill:#fff}#B,#RP,#Z{fill:#000}}
  </style>
  <g fill="none">
    <path vector-effect="non-scaling-stroke" d="M7.767 5.407q0.071 -0.125 0.187 -0.242c0.244 -0.246 0.509 -0.546 0.82 -0.85q0.077 -0.075 -0.055 -0.077 -1.729 -0.032 -3.46 -0.017a0.016 0.016 0 0 0 -0.016 0.016c-0.005 2.396 -0.016 3.746 0.03 5.334q0.001 0.033 0.024 0.009l3.954 -4.068q0.011 -0.011 -0.005 -0.012 -0.541 -0.008 -1.09 -0.027 -0.237 -0.008 -0.382 -0.05a0.013 0.012 22.3 0 1 -0.008 -0.018"/>
    <path vector-effect="non-scaling-stroke" d="M10.032 6.701c-0.004 -0.105 0.28 -0.391 0.359 -0.474q0.952 -1.005 1.921 -1.994 0.013 -0.014 -0.006 -0.014h-2.914a0.037 0.036 20.9 0 0 -0.027 0.011l-0.642 0.695q-0.023 0.026 0.012 0.026 0.57 0.005 1.132 0.026 0.152 0.006 0.304 0.028 0.072 0.011 0.023 0.064c-0.783 0.853 -1.603 1.665 -2.378 2.519q-0.024 0.027 0.012 0.03 0.251 0.024 0.503 0.013 0.615 -0.025 1.233 -0.046a0.043 0.039 19.8 0 0 0.027 -0.011l0.83 -0.827q0.01 -0.01 -0.005 -0.011l-0.367 -0.019a0.019 0.018 -89.5 0 1 -0.017 -0.018m0.83 4.457a0.011 0.011 0 0 0 0.011 -0.011c0.007 -1.421 0.041 -2.848 0.006 -4.276q-0.001 -0.04 -0.03 -0.012 -0.271 0.266 -0.55 0.557c-1.347 1.399 -2.712 2.782 -4.043 4.195 -0.051 0.054 -0.099 0.121 -0.149 0.178q-0.02 0.023 0.011 0.023h1.148a0.037 0.037 -67.2 0 0 0.026 -0.011l0.628 -0.632a0.037 0.036 22.8 0 1 0.027 -0.011c0.33 0.011 0.749 -0.001 0.988 -0.002q0.95 -0.004 1.928 0.001m-3.916 -2.704 -2.888 2.987q-0.178 0.184 -0.355 0.352 -0.02 0.019 0.007 0.019h1.187a0.037 0.037 21.7 0 0 0.027 -0.012l2.794 -2.896a0.038 0.036 -66.4 0 1 0.027 -0.012h0.571a0.041 0.036 20.2 0 0 0.027 -0.01q0.4 -0.381 0.727 -0.75 0.065 -0.073 -0.033 -0.076 -0.861 -0.026 -1.664 -0.018a0.04 0.038 -66.2 0 0 -0.027 0.011q-0.203 0.198 -0.401 0.403m-0.145 -3.401q-0.339 -0.054 -0.69 -0.005a0.053 0.053 -89.8 0 0 -0.046 0.045q-0.029 0.195 -0.019 0.407a0.019 0.019 2.9 0 0 0.016 0.018c0.369 0.055 0.568 -0.148 0.752 -0.433a0.021 0.021 -69.1 0 0 -0.014 -0.032m0.312 1.364q-0.14 -0.033 -0.298 -0.034 -0.376 -0.003 -0.749 0.002a0.016 0.016 -89.4 0 0 -0.016 0.016q-0.015 0.535 0.02 1.083 0.005 0.081 0.064 0.025 0.507 -0.48 0.994 -1.051a0.025 0.025 26.6 0 0 -0.014 -0.041"/>
    <path vector-effect="non-scaling-stroke" d="M8.855 10.282q0.579 0.034 1.144 0.02a0.017 0.016 -90 0 0 0.016 -0.016c0.002 -0.371 0.03 -0.779 -0.023 -1.146q-0.01 -0.07 -0.063 -0.022 -0.576 0.528 -1.093 1.117 -0.038 0.044 0.02 0.047"/>
  </g>
  <path d="M3.002 0h10c1.655 0.097 2.91 1.354 2.998 3.01v10c-0.113 1.651 -1.351 2.908 -3.01 2.99H3.006C1.348 15.918 0.121 14.663 0 13.014V2.998C0.093 1.345 1.341 0.104 3.002 0Zm4.765 5.407q0.071 -0.125 0.187 -0.242c0.244 -0.246 0.509 -0.546 0.82 -0.85q0.077 -0.075 -0.055 -0.077 -1.729 -0.032 -3.46 -0.017a0.016 0.016 0 0 0 -0.016 0.016c-0.005 2.396 -0.016 3.746 0.03 5.334q0.001 0.033 0.024 0.009l3.954 -4.068q0.011 -0.011 -0.005 -0.012 -0.541 -0.008 -1.09 -0.027 -0.237 -0.008 -0.382 -0.05a0.013 0.012 22.3 0 1 -0.008 -0.018Zm2.265 1.294c-0.004 -0.105 0.28 -0.391 0.359 -0.474q0.952 -1.005 1.921 -1.994 0.013 -0.014 -0.006 -0.014h-2.914a0.037 0.036 20.9 0 0 -0.027 0.011l-0.642 0.695q-0.023 0.026 0.012 0.026 0.57 0.005 1.132 0.026 0.152 0.006 0.304 0.028 0.072 0.011 0.023 0.064c-0.783 0.853 -1.603 1.665 -2.378 2.519q-0.024 0.027 0.012 0.03 0.251 0.024 0.503 0.013 0.615 -0.025 1.233 -0.046a0.043 0.039 19.8 0 0 0.027 -0.011l0.83 -0.827q0.01 -0.01 -0.005 -0.011l-0.367 -0.019a0.019 0.018 -89.5 0 1 -0.017 -0.018Zm0.83 4.457a0.011 0.011 0 0 0 0.011 -0.011c0.007 -1.421 0.041 -2.848 0.006 -4.276q-0.001 -0.04 -0.03 -0.012 -0.271 0.266 -0.55 0.557c-1.347 1.399 -2.712 2.782 -4.043 4.195 -0.051 0.054 -0.099 0.121 -0.149 0.178q-0.02 0.023 0.011 0.023h1.148a0.037 0.037 -67.2 0 0 0.026 -0.011l0.628 -0.632a0.037 0.036 22.8 0 1 0.027 -0.011c0.33 0.011 0.749 -0.001 0.988 -0.002q0.95 -0.004 1.928 0.001Zm-3.916 -2.704 -2.888 2.987q-0.178 0.184 -0.355 0.352 -0.02 0.019 0.007 0.019h1.187a0.037 0.037 21.7 0 0 0.027 -0.012l2.794 -2.896a0.038 0.036 -66.4 0 1 0.027 -0.012h0.571a0.041 0.036 20.2 0 0 0.027 -0.01q0.4 -0.381 0.727 -0.75 0.065 -0.073 -0.033 -0.076 -0.861 -0.026 -1.664 -0.018a0.04 0.038 -66.2 0 0 -0.027 0.011q-0.203 0.198 -0.401 0.403Z"/>
  <path fill="#fff" id="B" d="M7.775 5.424q0.145 0.042 0.382 0.05 0.549 0.018 1.09 0.027 0.016 0 0.005 0.012l-3.954 4.067q-0.023 0.024 -0.024 -0.009c-0.046 -1.588 -0.035 -2.938 -0.03 -5.334a0.016 0.016 0 0 1 0.016 -0.016q1.731 -0.015 3.46 0.017 0.132 0.003 0.055 0.077c-0.311 0.304 -0.576 0.604 -0.82 0.85q-0.116 0.116 -0.187 0.242a0.013 0.012 22.3 0 0 0.008 0.018Zm-0.973 -0.371q-0.339 -0.054 -0.69 -0.005a0.053 0.053 -89.8 0 0 -0.046 0.045q-0.029 0.195 -0.019 0.407a0.019 0.019 2.9 0 0 0.016 0.018c0.369 0.055 0.568 -0.148 0.752 -0.433a0.021 0.021 -69.1 0 0 -0.014 -0.032Zm0.312 1.364q-0.14 -0.033 -0.298 -0.034 -0.376 -0.003 -0.749 0.002a0.016 0.016 -89.4 0 0 -0.016 0.016q-0.015 0.535 0.02 1.083 0.005 0.081 0.064 0.025 0.507 -0.48 0.994 -1.051a0.025 0.025 26.6 0 0 -0.014 -0.041Z"/>
  <path fill="#fff" id="Z" d="m10.049 6.719 0.367 0.019q0.015 0.001 0.005 0.011l-0.83 0.827a0.043 0.039 19.8 0 1 -0.027 0.011q-0.618 0.021 -1.233 0.046 -0.252 0.01 -0.503 -0.013 -0.036 -0.003 -0.012 -0.03c0.776 -0.854 1.595 -1.667 2.378 -2.519q0.049 -0.053 -0.023 -0.064 -0.151 -0.023 -0.304 -0.028 -0.562 -0.021 -1.132 -0.026 -0.035 0 -0.012 -0.026l0.642 -0.695a0.037 0.036 20.9 0 1 0.027 -0.011h2.914q0.019 0 0.006 0.014 -0.969 0.989 -1.921 1.994c-0.079 0.083 -0.363 0.37 -0.359 0.474a0.019 0.018 -89.5 0 0 0.017 0.018Z"/>
  <path d="M6.802 5.053a0.021 0.021 -69.1 0 1 0.014 0.032c-0.184 0.285 -0.383 0.488 -0.752 0.433a0.019 0.019 2.9 0 1 -0.016 -0.018q-0.01 -0.212 0.019 -0.407a0.053 0.053 -89.8 0 1 0.046 -0.045q0.351 -0.048 0.69 0.005Zm0.312 1.364a0.025 0.025 26.6 0 1 0.014 0.041q-0.486 0.571 -0.994 1.051 -0.059 0.056 -0.064 -0.025 -0.035 -0.548 -0.02 -1.083a0.016 0.016 -89.4 0 1 0.016 -0.016q0.374 -0.005 0.749 -0.002 0.158 0.002 0.298 0.034Z"/>
  <path fill="#fff" id="RP" d="M10.862 11.158q-0.978 -0.005 -1.928 -0.001c-0.239 0.001 -0.658 0.013 -0.988 0.002a0.037 0.036 22.8 0 0 -0.027 0.011l-0.628 0.632a0.037 0.037 -67.2 0 1 -0.026 0.011h-1.148q-0.031 0 -0.011 -0.023c0.05 -0.058 0.098 -0.125 0.149 -0.178 1.332 -1.413 2.697 -2.796 4.043 -4.195q0.28 -0.291 0.55 -0.557 0.029 -0.028 0.03 0.012c0.035 1.428 0.001 2.855 -0.006 4.276a0.011 0.011 0 0 1 -0.011 0.011Zm-2.007 -0.876q0.579 0.034 1.144 0.02a0.017 0.016 -90 0 0 0.016 -0.016c0.002 -0.371 0.03 -0.779 -0.023 -1.146q-0.01 -0.07 -0.063 -0.022 -0.576 0.528 -1.093 1.117 -0.038 0.044 0.02 0.047Zm-1.909 -1.828q0.198 -0.205 0.401 -0.403a0.04 0.038 -66.2 0 1 0.027 -0.011q0.803 -0.008 1.664 0.018 0.098 0.003 0.033 0.076 -0.328 0.369 -0.727 0.75a0.041 0.036 20.2 0 1 -0.027 0.01h-0.571a0.038 0.036 -66.4 0 0 -0.027 0.012L4.925 11.802a0.037 0.037 21.7 0 1 -0.027 0.012H3.711q-0.028 0 -0.007 -0.019 0.177 -0.168 0.355 -0.352l2.888 -2.987Z"/>
  <path d="M8.855 10.282q-0.058 -0.003 -0.02 -0.047 0.517 -0.589 1.093 -1.117 0.052 -0.048 0.063 0.022c0.053 0.366 0.025 0.774 0.023 1.146a0.017 0.016 -90 0 1 -0.016 0.016q-0.564 0.014 -1.144 -0.02Z"/>
</svg>
