<svg width="512" height="512" viewBox="0 0 512 512" fill="none" xmlns="http://www.w3.org/2000/svg">
<rect width="512" height="512" fill="black"/>
<path d="M167.727 221.257C167.727 268.731 168.37 307.192 169.014 306.87C169.658 306.548 198.625 277.099 233.385 241.212L296.468 176.036L272.329 175.554C254.466 175.232 248.19 174.588 248.19 173.14C248.19 172.013 255.754 163.645 265.088 154.311C274.421 144.978 281.985 136.931 281.985 136.287C281.985 135.483 256.237 135 224.856 135H167.727V221.257ZM218.258 161.875C218.74 162.519 216.166 166.059 212.464 169.921C206.832 175.715 204.579 176.841 199.59 176.841H193.475V169.921C193.475 166.059 193.958 162.358 194.601 161.875C195.889 160.427 216.809 160.427 218.258 161.875ZM228.557 205.808C227.752 208.383 196.533 241.212 194.923 241.212C194.119 241.212 193.475 233.005 193.475 222.705V204.199H211.338C222.281 204.199 228.879 204.842 228.557 205.808Z" fill="white"/>
<path d="M289.226 146.587L278.444 158.334L302.744 158.817C317.71 158.978 327.044 159.783 327.044 160.909C327.044 161.714 309.825 180.22 288.904 201.946C267.823 223.51 250.282 242.177 249.96 243.143C249.477 244.43 257.201 244.591 278.122 243.787L306.928 242.66L320.607 229.142L334.286 215.464H327.366C316.101 215.464 314.009 218.199 368.241 161.875L394.311 135H347.16H300.008L289.226 146.587Z" fill="white"/>
<path d="M318.193 248.936C302.422 265.512 269.593 299.468 245.293 324.411C221.154 349.355 199.912 371.563 198.141 373.816L194.923 378H213.912H233.063L243.362 367.54L253.661 357.079H300.813H347.965L348.286 287.881C348.608 249.741 348.447 218.682 347.965 218.843C347.482 218.843 334.125 232.361 318.193 248.936ZM320.607 310.411V329.722H301.296C290.675 329.722 281.984 329.239 281.984 328.756C281.984 326.825 316.584 291.421 318.676 291.26C320.124 291.099 320.607 295.927 320.607 310.411Z" fill="white"/>
<path d="M209.889 283.375C196.05 297.858 172.393 322.319 157.427 337.768C142.461 353.217 127.495 368.666 124.115 372.046L118 378H137.633H157.266L202.165 331.331L247.225 284.662H257.041H266.697L279.249 272.11C286.008 265.351 291.64 259.075 291.64 258.431C291.64 257.787 278.927 257.305 263.478 257.305H235.316L209.889 283.375Z" fill="white"/>
</svg>

