<svg xmlns="http://www.w3.org/2000/svg" viewBox="0 0 192 192" width="192" height="192" fill="#fff">
  <style>
    @media (prefers-color-scheme: light){path{fill:#000}#B,#RP,#Z{fill:#fff}}
  </style>
  <g fill="none">
    <path vector-effect="non-scaling-stroke" d="M93.204 64.884q.852-1.5 2.244-2.904c2.928-2.952 6.108-6.552 9.84-10.2q.924-.9-.66-.924-20.748-.384-41.52-.204a.192.192 0 0 0-.192.192c-.06 28.752-.192 44.952.36 64.008q.012.396.288.108l47.448-48.816q.132-.132-.06-.144-6.492-.096-13.08-.324-2.844-.096-4.584-.6a.156.144 22.3 0 1-.096-.216"/>
    <path vector-effect="non-scaling-stroke" d="M120.384 80.412c-.048-1.26 3.36-4.692 4.308-5.688q11.424-12.06 23.052-23.928.156-.168-.072-.168h-34.968a.444.432 20.9 0 0-.324.132l-7.704 8.34q-.276.312.144.312 6.84.06 13.584.312 1.824.072 3.648.336.864.132.276.768c-9.396 10.236-19.236 19.98-28.536 30.228q-.288.324.144.36 3.012.288 6.036.156 7.38-.3 14.796-.552a.516.468 19.8 0 0 .324-.132l9.96-9.924q.12-.12-.06-.132l-4.404-.228a.228.216-89.5 0 1-.204-.216m9.96 53.484a.132.132 0 0 0 .132-.132c.084-17.052.492-34.176.072-51.312q-.012-.48-.36-.144-3.252 3.192-6.6 6.684c-16.164 16.788-32.544 33.384-48.516 50.34-.612.648-1.188 1.452-1.788 2.136q-.24.276.132.276h13.776a.444.444-67.2 0 0 .312-.132l7.536-7.584a.444.432 22.8 0 1 .324-.132c3.96.132 8.988-.012 11.856-.024q11.4-.048 23.136.012m-46.992-32.448-34.656 35.844q-2.136 2.208-4.26 4.224-.24.228.084.228h14.244a.444.444 21.7 0 0 .324-.144l33.528-34.752a.456.432-66.4 0 1 .324-.144h6.852a.492.432 20.2 0 0 .324-.12q4.8-4.572 8.724-9 .78-.876-.396-.912-10.332-.312-19.968-.216a.48.456-66.2 0 0-.324.132q-2.436 2.376-4.812 4.836m-1.74-40.812q-4.068-.648-8.28-.06a.636.636-89.8 0 0-.552.54q-.348 2.34-.228 4.884a.228.228 2.9 0 0 .192.216c4.428.66 6.816-1.776 9.024-5.196a.252.252-69.1 0 0-.168-.384m3.744 16.368q-1.68-.396-3.576-.408-4.512-.036-8.988.024a.192.192-89.4 0 0-.192.192q-.18 6.42.24 12.996.06.972.768.3 6.084-5.76 11.928-12.612a.3.3 26.6 0 0-.168-.492"/>
    <path vector-effect="non-scaling-stroke" d="M106.26 123.384q6.948.408 13.728.24a.204.192-90 0 0 .192-.192c.024-4.452.36-9.348-.276-13.752q-.12-.84-.756-.264-6.912 6.336-13.116 13.404-.456.528.24.564"/>
  </g>
  <path d="M36.024 0h120c19.86 1.164 34.92 16.248 35.976 36.12v120c-1.356 19.812-16.212 34.896-36.12 35.88H36.072C16.176 191.016 1.452 175.956 0 156.168V35.976C1.116 16.14 16.092 1.248 36.024 0Zm57.18 64.884q.852-1.5 2.244-2.904c2.928-2.952 6.108-6.552 9.84-10.2q.924-.9-.66-.924-20.748-.384-41.52-.204a.192.192 0 0 0-.192.192c-.06 28.752-.192 44.952.36 64.008q.012.396.288.108l47.448-48.816q.132-.132-.06-.144-6.492-.096-13.08-.324-2.844-.096-4.584-.6a.156.144 22.3 0 1-.096-.216Zm27.18 15.528c-.048-1.26 3.36-4.692 4.308-5.688q11.424-12.06 23.052-23.928.156-.168-.072-.168h-34.968a.444.432 20.9 0 0-.324.132l-7.704 8.34q-.276.312.144.312 6.84.06 13.584.312 1.824.072 3.648.336.864.132.276.768c-9.396 10.236-19.236 19.98-28.536 30.228q-.288.324.144.36 3.012.288 6.036.156 7.38-.3 14.796-.552a.516.468 19.8 0 0 .324-.132l9.96-9.924q.12-.12-.06-.132l-4.404-.228a.228.216-89.5 0 1-.204-.216Zm9.96 53.484a.132.132 0 0 0 .132-.132c.084-17.052.492-34.176.072-51.312q-.012-.48-.36-.144-3.252 3.192-6.6 6.684c-16.164 16.788-32.544 33.384-48.516 50.34-.612.648-1.188 1.452-1.788 2.136q-.24.276.132.276h13.776a.444.444-67.2 0 0 .312-.132l7.536-7.584a.444.432 22.8 0 1 .324-.132c3.96.132 8.988-.012 11.856-.024q11.4-.048 23.136.012Zm-46.992-32.448-34.656 35.844q-2.136 2.208-4.26 4.224-.24.228.084.228h14.244a.444.444 21.7 0 0 .324-.144l33.528-34.752a.456.432-66.4 0 1 .324-.144h6.852a.492.432 20.2 0 0 .324-.12q4.8-4.572 8.724-9 .78-.876-.396-.912-10.332-.312-19.968-.216a.48.456-66.2 0 0-.324.132q-2.436 2.376-4.812 4.836Z"/>
  <path fill="#000" id="B" d="M93.3 65.088q1.74.504 4.584.6 6.588.216 13.08.324.192 0 .06.144L63.576 114.96q-.276.288-.288-.108c-.552-19.056-.42-35.256-.36-64.008a.192.192 0 0 1 .192-.192q20.772-.18 41.52.204 1.584.036.66.924c-3.732 3.648-6.912 7.248-9.84 10.2q-1.392 1.392-2.244 2.904a.156.144 22.3 0 0 .096.216Zm-11.676-4.452q-4.068-.648-8.28-.06a.636.636-89.8 0 0-.552.54q-.348 2.34-.228 4.884a.228.228 2.9 0 0 .192.216c4.428.66 6.816-1.776 9.024-5.196a.252.252-69.1 0 0-.168-.384Zm3.744 16.368q-1.68-.396-3.576-.408-4.512-.036-8.988.024a.192.192-89.4 0 0-.192.192q-.18 6.42.24 12.996.06.972.768.3 6.084-5.76 11.928-12.612a.3.3 26.6 0 0-.168-.492Z"/>
  <path fill="#000" id="Z" d="m120.588 80.628 4.404.228q.18.012.06.132l-9.96 9.924a.516.468 19.8 0 1-.324.132q-7.416.252-14.796.552-3.024.12-6.036-.156-.432-.036-.144-.36c9.312-10.248 19.14-20.004 28.536-30.228q.588-.636-.276-.768-1.812-.276-3.648-.336-6.744-.252-13.584-.312-.42 0-.144-.312l7.704-8.34a.444.432 20.9 0 1 .324-.132h34.968q.228 0 .072.168-11.628 11.868-23.052 23.928c-.948.996-4.356 4.44-4.308 5.688a.228.216-89.5 0 0 .204.216Z"/>
  <path d="M81.624 60.636a.252.252-69.1 0 1 .168.384c-2.208 3.42-4.596 5.856-9.024 5.196a.228.228 2.9 0 1-.192-.216q-.12-2.544.228-4.884a.636.636-89.8 0 1 .552-.54q4.212-.576 8.28.06Zm3.744 16.368a.3.3 26.6 0 1 .168.492q-5.832 6.852-11.928 12.612-.708.672-.768-.3-.42-6.576-.24-12.996a.192.192-89.4 0 1 .192-.192q4.488-.06 8.988-.024 1.896.024 3.576.408Z"/>
  <path fill="#000" id="RP" d="M130.344 133.896q-11.736-.06-23.136-.012c-2.868.012-7.896.156-11.856.024a.444.432 22.8 0 0-.324.132l-7.536 7.584a.444.444-67.2 0 1-.312.132H73.404q-.372 0-.132-.276c.6-.696 1.176-1.5 1.788-2.136 15.984-16.956 32.364-33.552 48.516-50.34q3.36-3.492 6.6-6.684.348-.336.36.144c.42 17.136.012 34.26-.072 51.312a.132.132 0 0 1-.132.132Zm-24.084-10.512q6.948.408 13.728.24a.204.192-90 0 0 .192-.192c.024-4.452.36-9.348-.276-13.752q-.12-.84-.756-.264-6.912 6.336-13.116 13.404-.456.528.24.564Zm-22.908-21.936q2.376-2.46 4.812-4.836a.48.456-66.2 0 1 .324-.132q9.636-.096 19.968.216 1.176.036.396.912-3.936 4.428-8.724 9a.492.432 20.2 0 1-.324.12h-6.852a.456.432-66.4 0 0-.324.144L59.1 141.624a.444.444 21.7 0 1-.324.144H44.532q-.336 0-.084-.228 2.124-2.016 4.26-4.224l34.656-35.844Z"/>
  <path d="M106.26 123.384q-.696-.036-.24-.564 6.204-7.068 13.116-13.404.624-.576.756.264c.636 4.392.3 9.288.276 13.752a.204.192-90 0 1-.192.192q-6.768.168-13.728-.24Z"/>
</svg>
