<?xml version="1.0" standalone="no"?>
<!DOCTYPE svg PUBLIC "-//W3C//DTD SVG 20010904//EN"
 "http://www.w3.org/TR/2001/REC-SVG-20010904/DTD/svg10.dtd">
<svg version="1.0" xmlns="http://www.w3.org/2000/svg"
 width="1129.000000pt" height="221.000000pt" viewBox="0 0 1129.000000 221.000000"
 preserveAspectRatio="xMidYMid meet">
<metadata>
Created by potrace 1.16, written by Peter Selinger 2001-2019
</metadata>
<g transform="translate(0.000000,221.000000) scale(0.100000,-0.100000)"
fill="#9dd2fc" stroke="none">
<path d="M155 2111 c-17 -3 -38 -19 -50 -37 -21 -30 -21 -36 -20 -993 l0 -963
26 -22 26 -22 1024 2 c1222 3 1244 4 1394 99 63 41 87 67 120 133 46 92 63
157 75 290 9 99 9 150 1 217 -13 93 -49 202 -82 248 -11 15 -30 42 -43 61
l-23 34 35 103 c35 102 36 108 35 259 0 181 -20 280 -77 377 -81 138 -185 186
-457 212 -124 12 -1930 14 -1984 2z m2025 -166 c125 -15 211 -43 253 -83 67
-63 90 -151 90 -342 0 -166 -13 -223 -71 -298 -53 -70 -49 -100 22 -170 77
-75 111 -144 124 -252 9 -77 4 -210 -13 -320 -10 -67 -63 -150 -119 -184 -94
-57 -116 -58 -1213 -60 l-1013 -2 0 857 0 858 43 3 c93 7 1836 1 1897 -7z"/>
<path d="M714 1679 c-18 -5 -36 -20 -44 -36 -16 -32 -26 -246 -15 -329 6 -48
11 -58 38 -75 31 -18 56 -19 712 -18 374 1 693 4 710 8 18 4 38 19 52 40 21
32 23 44 23 181 0 157 -9 203 -44 223 -26 15 -1382 21 -1432 6z m1281 -158
c29 -6 30 -9 33 -65 2 -32 -1 -63 -6 -68 -9 -9 -1190 -13 -1199 -4 -3 3 -8 28
-11 55 -3 40 -1 52 17 70 21 21 23 21 579 20 306 -1 571 -4 587 -8z"/>
<path d="M690 937 c-33 -17 -42 -69 -37 -237 4 -157 12 -183 66 -197 22 -7
287 -10 712 -9 622 1 677 3 702 19 43 28 51 54 55 184 5 145 -3 208 -29 234
-18 18 -41 19 -731 19 -551 0 -719 -3 -738 -13z m1323 -156 c12 -10 17 -30 17
-72 l0 -59 -594 0 c-675 0 -633 -5 -623 79 3 27 12 50 23 58 28 21 1153 15
1177 -6z"/>
<path d="M2954 2101 c-33 -15 -44 -26 -50 -53 -4 -18 -7 -132 -6 -253 2 -203
4 -221 22 -239 19 -19 40 -20 592 -22 812 -3 788 -2 788 -16 0 -18 -50 -56
-170 -127 -58 -35 -141 -87 -185 -117 -76 -50 -147 -95 -400 -250 -60 -37
-146 -91 -190 -119 -44 -29 -109 -70 -145 -92 -137 -83 -254 -159 -283 -184
l-30 -25 -1 -225 c0 -123 3 -236 7 -250 15 -56 -34 -54 1307 -53 679 0 1256 4
1282 8 37 6 52 14 70 39 21 30 23 43 26 227 3 218 -6 276 -46 291 -13 5 -329
9 -703 9 -423 0 -679 4 -679 10 0 10 51 47 155 109 39 23 90 57 115 75 25 18
70 46 100 63 30 16 110 66 177 109 67 43 195 124 283 179 89 55 207 130 263
166 56 37 145 94 197 127 138 88 135 82 135 337 0 218 -7 264 -43 282 -10 4
-586 9 -1282 10 -1224 3 -1266 2 -1306 -16z m2464 -154 c13 -9 18 -273 4 -293
-7 -12 -188 -130 -387 -254 -57 -36 -155 -98 -217 -138 -62 -40 -144 -91 -181
-115 -38 -23 -129 -81 -202 -129 -74 -49 -137 -88 -140 -88 -5 0 -80 -47 -217
-137 -53 -34 -100 -63 -105 -63 -22 -2 -150 -100 -166 -128 -18 -30 -18 -34
-3 -57 33 -50 10 -49 832 -51 424 0 776 -4 783 -8 7 -5 11 -49 11 -130 l0
-122 -1181 0 c-1165 1 -1181 1 -1195 21 -11 15 -14 48 -12 143 3 122 3 123 33
153 16 17 75 57 130 88 96 56 343 209 510 316 162 104 213 136 330 206 66 40
129 80 140 89 11 10 70 47 130 83 198 120 339 214 359 240 29 39 13 88 -34
104 -26 9 -238 12 -816 12 l-781 1 -1 101 c-1 66 4 114 13 135 l13 33 1169 -2
c642 -2 1174 -6 1181 -10z"/>
<path d="M5841 2107 c-13 -6 -33 -24 -44 -39 -20 -27 -20 -39 -20 -910 1
-1148 -2 -1024 28 -1053 l24 -25 300 0 300 0 28 24 28 24 5 191 c4 156 8 194
20 201 21 13 1104 13 1151 0 34 -9 37 -14 43 -56 3 -26 6 -113 6 -194 0 -144
0 -147 25 -170 l25 -24 287 3 c212 2 295 6 319 16 51 21 58 57 52 284 -5 173
-9 208 -33 299 -23 84 -35 111 -67 146 -21 24 -38 47 -38 50 0 4 18 29 40 57
26 33 49 79 66 132 24 75 27 99 30 277 4 244 -23 436 -73 534 -21 41 -101 124
-147 154 -41 25 -152 56 -241 67 -27 3 -86 10 -130 15 -128 15 -1954 13 -1984
-3z m2014 -166 c141 -15 258 -46 297 -79 41 -35 72 -86 93 -157 15 -50 18
-101 19 -315 l1 -255 -33 -67 c-23 -48 -44 -75 -74 -95 -70 -48 -88 -69 -88
-105 0 -40 2 -43 70 -98 73 -60 86 -76 106 -133 22 -65 26 -365 5 -391 -12
-14 -36 -16 -200 -14 l-186 3 -5 190 c-3 105 -9 198 -14 208 -22 47 -21 47
-749 47 -671 0 -685 0 -710 -20 -38 -30 -46 -71 -43 -230 1 -80 -2 -157 -7
-172 l-9 -28 -193 0 -193 0 -7 28 c-10 39 -6 1647 4 1674 l9 23 898 -1 c622
-1 933 -5 1009 -13z"/>
<path d="M6469 1630 c-48 -3 -93 -11 -101 -18 -29 -23 -36 -86 -33 -312 2
-254 8 -280 67 -298 50 -16 1365 -8 1399 7 51 25 54 38 57 291 4 278 -1 305
-59 320 -39 11 -1176 19 -1330 10z m1228 -163 c4 -5 8 -74 8 -153 0 -118 -3
-146 -15 -154 -9 -6 -246 -10 -592 -10 l-577 0 -15 22 c-12 17 -16 49 -16 136
0 108 8 147 34 165 15 10 1162 4 1173 -6z"/>
<path d="M8687 2071 l-26 -31 2 -947 c2 -1007 1 -978 49 -1004 28 -15 568 -13
615 2 45 14 53 51 53 244 0 88 4 166 9 174 8 12 114 14 647 16 425 2 661 6
704 14 139 24 226 49 262 73 14 10 31 18 36 18 15 0 101 99 121 139 56 111 68
212 69 582 1 287 -11 376 -61 478 -41 83 -112 160 -173 189 -27 13 -58 28 -68
34 -11 6 -53 17 -95 26 -65 13 -223 16 -1097 19 l-1021 4 -26 -30z m1988 -129
c28 -7 91 -21 140 -33 139 -32 198 -79 235 -189 28 -83 36 -194 33 -486 -1
-177 -5 -246 -18 -294 -28 -108 -65 -165 -131 -197 -100 -51 -158 -54 -922
-59 -645 -4 -715 -6 -738 -21 -14 -9 -30 -27 -35 -40 -5 -14 -9 -100 -9 -193
0 -165 -1 -170 -22 -184 -18 -11 -63 -15 -191 -15 -93 -1 -174 -3 -180 -4 -21
-4 -24 112 -23 913 1 640 4 803 14 809 22 13 1789 6 1847 -7z"/>
<path d="M9341 1629 c-82 -6 -110 -26 -112 -78 -3 -92 3 -506 8 -517 14 -38
38 -39 708 -38 480 1 657 4 673 13 12 6 30 24 40 38 15 24 17 54 15 276 -2
276 -5 291 -65 302 -44 8 -1172 12 -1267 4z m1172 -176 c20 -40 17 -281 -3
-294 -19 -11 -1117 -12 -1124 -1 -8 13 -15 251 -9 290 l6 32 558 0 558 0 14
-27z"/>
</g>
</svg>
