<svg version="1.0" xmlns="http://www.w3.org/2000/svg" width="3093.333" height="573.333" viewBox="0 0 2320 430"><path d="M1222.5 7c-12.4.5-17 1-20.5 2.5-7 2.9-8.5 4.1-11.1 9.2l-2.4 4.8v191c0 179.7.1 191.3 1.8 196.1 1 2.8 2.9 6.2 4.3 7.5l2.6 2.4h124.6l2.7-2.5c5.8-5.4 5.9-6.2 6.5-47.7.3-21 .8-38.4 1.1-38.7 2.1-2.1 35.8-2.7 137.5-2.4 121.6.3 114.3-.1 117.6 6.8 1.4 2.9 1.8 8.1 2.3 32.5.3 15.9.8 32.8 1.1 37.5.6 7.8.8 8.6 3.9 11.7l3.3 3.3 54.4-.1c62.8-.1 68.5-.4 72.3-3.9 5.9-5.5 6-6.3 5.9-43.5-.2-45.3-2.6-65.4-10-84.1-3.4-8.5-6-12.8-11.9-19.4-6.4-7.2-6.1-10.5 1.9-21.9 9.3-13 14.7-26 17.6-42.2 3.8-21.2 3.6-81.8-.4-106.4-5-31-11.4-45.9-26-61.4-15.2-15.9-31.3-21.9-73.1-27.1-4.9-.7-12.1-1.6-16-2.2s-32.9-1.4-65-1.7c-71.5-.9-303.2-.9-325-.1zM1476 35.4c134.7.5 133.7.5 164 5.6 12.6 2.2 19 3.8 29.2 7.6 16.6 6.2 29.4 25.4 32.8 48.9 2 13.9 3.3 51.2 2.7 78.5-.5 23.8-.9 28.5-2.7 34.9-1.1 4-2.8 8.8-3.7 10.5-3.5 7-12.1 16.9-21 24.2-9.6 7.8-13.3 12.2-13.3 16 0 4.7 4.6 10.4 15.3 18.9 22.3 17.9 24.4 24.6 25.4 79 .6 31 .5 33.1-1.2 34.5-1.5 1.3-8.3 1.5-43.6 1.8-39.5.3-41.8.2-42.7-1.5-1.7-3.2-2.1-10.4-2.8-43.3-.3-17.9-1-34.1-1.6-36-1.9-6.3-5.8-9.2-14-10.4-2.5-.4-66.3-.7-141.7-.7-135.5 0-137 0-140.9 2-9 4.6-9.2 5.6-10.1 54l-.6 33.5-2.5 1.3c-1.9 1-12.5 1.3-43.6 1.3-40.5 0-41.1 0-43-2.1s-1.9-6.6-2.2-174.6c-.1-114.7.1-173.8.8-176.3 1.3-4.9 5-7.3 12-8 3-.3 31.8-.4 64-.3s115.4.4 185 .7z"/><path d="M1318.2 108.1c-5.1.7-10.8 5.6-12.3 10.9-.7 2.3-.9 21-.7 53 .3 55.4.1 53.6 7.5 58.1l3.8 2.3h286l4.2-2.7c7.6-4.8 7.3-2.5 7.3-59.3v-50.7l-2.5-4.4c-5-8.4 8.5-7.7-149-7.8-77 0-141.9.2-144.3.6zm263.7 26.8c2.4.5 4.7 1.4 5.1 2.1 1 1.6 3 24.8 3 35 0 4.7-.5 14-1.2 20.8-1.1 11-1.4 12.3-3.3 12.8-1.1.2-57.4.3-125.2.2-138.7-.3-125.5.6-127.3-8.6-1.5-8.3-2.2-31.5-1.1-44.6 1-13.3 2.3-16.2 8.2-18.4 2.7-.9 28-1.1 120.4-.7 64.4.3 119 .9 121.4 1.4zM21.2 8.4c-6.3 2.1-10.9 6-12.1 10.4C8.4 21.3 8 87.4 8 218.7v196.2l2.4 2.8 2.4 2.8 16.4.6c24.9.9 222.8.9 328.8-.1 78-.7 96.5-1.1 106-2.5 40.5-5.6 63.6-18.8 75.9-43.3 5.2-10.4 10.7-26.8 12.6-37.6 3.6-20.8 3.8-58 .5-75.6-2.7-14.2-10.2-31.5-20.5-47.1-3.6-5.4-6.8-11.1-7.1-12.7-.4-1.8.6-5.9 2.7-11.7 1.7-5 4.8-14.2 6.7-20.5 3.4-11.4 3.5-11.7 4-34.1.8-38.8-2.2-57-12.9-78.9-5.4-10.9-7.1-13.5-13.8-20.1-19.1-19-46.3-26.6-102.2-28.8-11.2-.4-102.3-.8-202.4-.9-151.4-.1-182.7.1-186.3 1.2zM444 37.8c19.3 2.7 29.2 5.2 37.5 9.4 17.3 8.8 25.5 22 30.5 49.2 4.5 24.5 1.3 67.2-6.2 82-1.1 2.3-4.2 7-6.8 10.6-6.5 9-7.1 10.4-7.1 16.5 0 6.6 1.1 8.5 10.1 16.5 21.7 19.2 28.9 40.5 27.7 81.5-1.1 36.2-4.3 50.6-14.4 64.5-9.6 13.1-23 20.2-45.3 24-14.3 2.4-47.4 2.9-236.5 3.6-186.4.7-197.1.6-198.4-1-1.3-1.5-1.4-25.7-1.2-178.3.1-97.1.5-177.3.9-178.2.3-.9 1-1.9 1.6-2.4.6-.4 88.9-.6 196.1-.4l195 .2 16.5 2.3z"/><path d="M141.5 96.1c-6.1.8-10.1 3.4-13 8.3s-3.2 8.8-3.5 37.1c-.3 31.9-.3 31.7 2.7 36.2 1.4 2.3 4.4 5.1 6.6 6.3l4 2.3 141.3-.2c82.2-.1 142.6-.6 144.5-1.1 4.5-1.3 9.4-4.9 11.6-8.5 1.6-2.7 1.8-5.9 2.1-33 .2-16.5.1-31.4-.3-33.1-.8-4.5-7.8-12.1-12.3-13.4-3.9-1.1-276.1-2-283.7-.9zm263.8 28.3c2.1 1.1 4.3 3 4.8 4.3 1.4 3.6 1.1 22.4-.4 25.2-.6 1.3-2.8 3.2-4.7 4.2-3.3 1.8-8.5 1.9-123.1 1.9-78.5 0-120.6-.3-122.5-1-4.7-1.6-5.4-3.8-5.6-17.3-.2-13.8.9-16.9 6.5-18.4 1.5-.5 56.4-.8 122-.8 114.4.1 119.4.1 123 1.9zM142.4 248c-9 .6-12.4 2.2-15 7.2-3.2 6.2-3.5 59.4-.4 69.5.7 2.3 2.6 5.5 4.2 7l2.9 2.8 37.2.5c20.5.3 84.2.6 141.7.8 116.8.3 111.3.6 118.1-6.5 6.4-6.7 6.4-6.4 6.6-34 .2-27.8-.7-38.5-3.5-42.3-1.2-1.5-3.7-2.9-6.6-3.7-3.4-.9-40.5-1.2-140.9-1.5-74.9-.2-139.8-.1-144.3.2zM408 276.5c2.3 2.3 2.5 3.4 2.8 13.2.5 13.3-.6 17.6-5.1 19.4-2.7 1.2-23.2 1.4-121.7 1.1-65.2-.1-119.7-.5-121.2-.8-3.3-.7-8.2-6-9.7-10.6-1.4-4.3 0-15.5 2.5-19.2 2.1-3.3 4.7-4.8 9.9-5.7 2.2-.5 57.1-.6 122-.4l117.9.5 2.6 2.5zm198.1-268c-7 2-11 4.9-13.2 10-1.7 3.8-1.8 7.6-1.9 46.9 0 26.5.4 44.2 1 46.6 1.3 4.9 5.8 8.7 11.3 9.5 2.3.3 65.6.6 140.7.8 128.9.2 136.7.3 139.3 2 5.3 3.5 3.6 5.8-12.3 16.4-6.4 4.3-25.1 15.9-38.5 24-2.2 1.3-6.6 4.1-9.8 6.1s-12.6 7.9-21 13.1c-8.4 5.1-18.6 11.5-22.7 14.1s-12.2 7.8-18 11.4c-5.8 3.7-18.4 11.5-28 17.5-9.6 5.9-32.1 19.9-50 31-17.9 11.2-42.4 26.4-54.5 33.9-26.5 16.3-34 21.7-35.7 25.7-1 2.3-1.3 13.5-1.1 49.3.2 50.6 0 49 6 52.9 2.6 1.7 13 1.8 189.8 2.1 102.8.1 222.3-.1 265.5-.5l78.5-.8 3.2-2.3c1.7-1.2 4.3-4.6 5.7-7.5l2.5-5.2-.2-42.5c-.2-42-.2-42.6-2.5-46.7-1.2-2.3-3.1-4.7-4.1-5.3-1.3-.7-47.7-1-142.5-1-91.2 0-141.4-.4-143.1-1-2.2-.8-2.6-1.5-2.3-4.2.3-3.1 1.7-4.2 18.8-15.6 16.1-10.8 29.8-19.5 58.5-37.5 3.9-2.4 17.7-11.1 30.8-19.3s35.4-22.1 49.5-31c41.6-26 102.3-64.3 115.2-72.6 10.2-6.6 15.5-11.4 18.5-16.9l3-5.4v-41c0-36.9-.2-41.5-1.8-46.2-2.1-6.1-5.5-9.8-10-10.8-1.7-.4-119.3-.9-261.2-1.1-224.4-.3-258.7-.1-263.4 1.1zm438.2 26.8c63 .3 68.9.4 70.4 2 1.5 1.5 1.7 4.9 1.8 32.1v30.4l-2.4 2.5c-1.2 1.4-8.9 6.7-17 11.8-8 5.1-20 12.7-26.6 16.9-18 11.6-32.1 20.5-40.5 25.7-4.1 2.5-14.7 9.2-23.5 14.8s-21.6 13.7-28.5 18-22.4 14.1-34.5 21.8-24.7 15.7-28 17.7c-3.3 2.1-12.7 8-21 13.2-8.2 5.2-18.6 11.6-23 14.3-11.9 7.2-54.1 33.5-69.5 43.4-16.2 10.3-24 17.4-24 21.7 0 3.8 3.2 8.9 6.7 10.7 6.9 3.5 11.2 3.6 167.8 4.1 85.3.2 156.2.7 157.7 1.1 1.4.4 3.6 1.6 4.8 2.7 2 1.9 2.1 2.6 1.8 27.3-.2 16.4-.7 25.8-1.4 26.5s-74.7 1.2-248.1 1.6l-247.1.6-1.8-2.8c-1.7-2.5-1.9-5.4-2.1-28.9-.2-31.8.1-33.8 5.9-38.8 4-3.5 25.5-17.3 61.2-39.2 8.3-5.1 18.7-11.5 23.1-14.3s13-8.1 19-11.8c6.1-3.7 22.7-14 37-22.9s39.3-24.4 55.5-34.5c32.8-20.4 56.9-35.4 61.7-38.5 1.7-1.1 6.2-3.9 10-6.2 38.7-24 57.4-36 60.5-39.1 2.1-2 4.5-5.5 5.4-7.8 1.5-3.9 1.5-4.5-.1-7.7-1.9-4-5.8-6.3-12.5-7.1-2.5-.4-76.5-.9-164.5-1.2-111-.5-160.4-1-161.3-1.7-1.9-1.5-1-51.3 1-55.4 1.3-2.7 1.7-2.8 9.8-3.3 8.7-.5 293.2-.3 416.3.3zM1833 11c-32.7.5-35.7.6-38.3 2.4-6.2 4.2-6.1 3.5-6.8 56.1-.3 26.4-.6 111.2-.7 188.5-.1 149.2-.1 149.4 4.6 157.4 3.3 5.7 3.6 5.7 68.6 5.4 66.7-.3 63.6 0 67.4-8 1.9-4 2.1-6.4 2.3-34.8.2-38.4.5-42.7 3.4-45.6l2.1-2.1 114-.7c144.1-.8 155.1-1.2 178.1-5.2 15.7-2.7 34.7-8.4 42.9-13 20.4-11.2 33.8-32.1 39.8-61.7 2.5-12.4 3.8-42.5 3.8-91.2 0-43.7-.2-47.9-2.2-60-4.5-26.7-12.8-43.5-29.5-59.3-6.7-6.3-10.5-9-18.7-13.1-18.4-9.1-38.4-12.6-85.1-15.1-18.9-1-275.1-1-345.7 0zm360 26.3c27.1 3.9 49.3 8.8 59.5 13.2 20.2 8.7 32.7 30.3 35.6 61.5 1.7 17.7 2.2 81.4.9 103.5-1.8 30.8-4.2 41.1-12.9 56-8 13.7-18.2 20.5-38.1 25.3-4.8 1.2-26.5 3.8-39 4.6-4.1.3-68 .8-142 1.1s-136 .8-137.8 1.1-4.8 1.8-6.7 3.5c-5.9 5.2-6.3 7.8-6.9 43.9-.7 40.3-.8 41.5-5 43-1.7.6-11.4 1.3-21.6 1.5-10.2.3-28.2.7-40.1 1-19.2.5-21.8.4-23.3-1-1.5-1.6-1.6-15.5-1.4-177.9.3-165.2.4-176.4 2-178.8 1.3-1.9 2.9-2.8 5.5-3.1 2.1-.3 84.1-.3 182.3-.2 152.9.2 180 .5 189 1.8z"/><path d="M1941 108c-28.2.6-29.6.9-33.7 6.9l-2.3 3.4v105.9l3.9 3.9c3.9 3.9 3.9 3.9 12.2 4 4.6 0 65.8.1 136 .1l127.6.1 4.4-2.4c3.5-1.9 5.1-3.7 7.7-8.9l3.3-6.5-.6-39c-.7-50.4-1.2-58.8-3.7-62.1-4.7-5.9 2.1-5.6-118.7-5.8-60.8 0-122.1.1-136.1.4zm224.6 26.3c2 .6 4.7 2.5 5.8 4 2 2.7 2.1 3.9 2.1 33.4v30.6l-2.5 1.8c-2.4 1.7-8 1.8-120.3 2-64.8.1-118-.1-118.4-.4-2.1-2.2-3.1-69.3-1-71.4 1.5-1.5 27.3-1.8 129.4-1.5 77.1.2 102.1.5 104.9 1.5z"/></svg>