<?xml version="1.0" standalone="no"?>
<!DOCTYPE svg PUBLIC "-//W3C//DTD SVG 20010904//EN"
 "http://www.w3.org/TR/2001/REC-SVG-20010904/DTD/svg10.dtd">
<svg version="1.0" xmlns="http://www.w3.org/2000/svg"
 width="2320.000000pt" height="430.000000pt" viewBox="0 0 2320.000000 430.000000"
 preserveAspectRatio="xMidYMid meet">

<g transform="translate(0.000000,430.000000) scale(0.100000,-0.100000)"
fill="#9dd2fc" stroke="none">
<path d="M12225 4230 c-124 -5 -170 -10 -205 -25 -70 -29 -85 -41 -111 -92
l-24 -48 0 -1910 c0 -1797 1 -1913 18 -1961 10 -28 29 -62 43 -75 l26 -24 623
0 623 0 27 25 c58 54 59 62 65 477 3 210 8 384 11 387 21 21 358 27 1375 24
1216 -3 1143 1 1176 -68 14 -29 18 -81 23 -325 3 -159 8 -328 11 -375 6 -78 8
-86 39 -117 l33 -33 544 1 c628 1 685 4 723 39 59 55 60 63 59 435 -2 453 -26
654 -100 841 -34 85 -60 128 -119 194 -64 72 -61 105 19 219 93 130 147 260
176 422 38 212 36 818 -4 1064 -50 310 -114 459 -260 614 -152 159 -313 219
-731 271 -49 7 -121 16 -160 22 -39 6 -329 14 -650 17 -715 9 -3032 9 -3250 1z
m2535 -284 c1347 -5 1337 -5 1640 -56 126 -22 190 -38 292 -76 166 -62 294
-254 328 -489 20 -139 33 -512 27 -785 -5 -238 -9 -285 -27 -349 -11 -40 -28
-88 -37 -105 -35 -70 -121 -169 -210 -242 -96 -78 -133 -122 -133 -160 0 -47
46 -104 153 -189 223 -179 244 -246 254 -790 6 -310 5 -331 -12 -345 -15 -13
-83 -15 -436 -18 -395 -3 -418 -2 -427 15 -17 32 -21 104 -28 433 -3 179 -10
341 -16 360 -19 63 -58 92 -140 104 -25 4 -663 7 -1417 7 -1355 0 -1370 0
-1409 -20 -90 -46 -92 -56 -101 -540 l-6 -335 -25 -13 c-19 -10 -125 -13 -436
-13 -405 0 -411 0 -430 21 -19 21 -19 66 -22 1746 -1 1147 1 1738 8 1763 13
49 50 73 120 80 30 3 318 4 640 3 322 -1 1154 -4 1850 -7z"/>
<path d="M13182 3219 c-51 -7 -108 -56 -123 -109 -7 -23 -9 -210 -7 -530 3
-554 1 -536 75 -581 l38 -23 1430 0 1430 0 42 27 c76 48 73 25 73 593 l0 507
-25 44 c-50 84 85 77 -1490 78 -770 0 -1419 -2 -1443 -6z m2637 -268 c24 -5
47 -14 51 -21 10 -16 30 -248 30 -350 0 -47 -5 -140 -12 -208 -11 -110 -14
-123 -33 -128 -11 -2 -574 -3 -1252 -2 -1387 3 -1255 -6 -1273 86 -15 83 -22
315 -11 446 10 133 23 162 82 184 27 9 280 11 1204 7 644 -3 1190 -9 1214 -14z"/>
<path d="M212 4216 c-63 -21 -109 -60 -121 -104 -7 -25 -11 -686 -11 -1999 l0
-1962 24 -28 24 -28 164 -6 c249 -9 2228 -9 3288 1 780 7 965 11 1060 25 405
56 636 188 759 433 52 104 107 268 126 376 36 208 38 580 5 756 -27 142 -102
315 -205 471 -36 54 -68 111 -71 127 -4 18 6 59 27 117 17 50 48 142 67 205
34 114 35 117 40 341 8 388 -22 570 -129 789 -54 109 -71 135 -138 201 -191
190 -463 266 -1022 288 -112 4 -1023 8 -2024 9 -1514 1 -1827 -1 -1863 -12z
m4228 -294 c193 -27 292 -52 375 -94 173 -88 255 -220 305 -492 45 -245 13
-672 -62 -820 -11 -23 -42 -70 -68 -106 -65 -90 -71 -104 -71 -165 0 -66 11
-85 101 -165 217 -192 289 -405 277 -815 -11 -362 -43 -506 -144 -645 -96
-131 -230 -202 -453 -240 -143 -24 -474 -29 -2365 -36 -1864 -7 -1971 -6
-1984 10 -13 15 -14 257 -12 1783 1 971 5 1773 9 1782 3 9 10 19 16 24 6 4
889 6 1961 4 l1950 -2 165 -23z"/>
<path d="M1415 3339 c-61 -8 -101 -34 -130 -83 -29 -49 -32 -88 -35 -371 -3
-319 -3 -317 27 -362 14 -23 44 -51 66 -63 l40 -23 1413 2 c822 1 1426 6 1445
11 45 13 94 49 116 85 16 27 18 59 21 330 2 165 1 314 -3 331 -8 45 -78 121
-123 134 -39 11 -2761 20 -2837 9z m2638 -283 c21 -11 43 -30 48 -43 14 -36
11 -224 -4 -252 -6 -13 -28 -32 -47 -42 -33 -18 -85 -19 -1231 -19 -785 0
-1206 3 -1225 10 -47 16 -54 38 -56 173 -2 138 9 169 65 184 15 5 564 8 1220
8 1144 -1 1194 -1 1230 -19z"/>
<path d="M1424 1820 c-90 -6 -124 -22 -150 -72 -32 -62 -35 -594 -4 -695 7
-23 26 -55 42 -70 l29 -28 372 -5 c205 -3 842 -6 1417 -8 1168 -3 1113 -6
1181 65 64 67 64 64 66 340 2 278 -7 385 -35 423 -12 15 -37 29 -66 37 -34 9
-405 12 -1409 15 -749 2 -1398 1 -1443 -2z m2656 -285 c23 -23 25 -34 28 -132
5 -133 -6 -176 -51 -194 -27 -12 -232 -14 -1217 -11 -652 1 -1197 5 -1212 8
-33 7 -82 60 -97 106 -14 43 0 155 25 192 21 33 47 48 99 57 22 5 571 6 1220
4 l1179 -5 26 -25z"/>
<path d="M6061 4215 c-70 -20 -110 -49 -132 -100 -17 -38 -18 -76 -19 -469 0
-265 4 -442 10 -466 13 -49 58 -87 113 -95 23 -3 656 -6 1407 -8 1289 -2 1367
-3 1393 -20 53 -35 36 -58 -123 -164 -64 -43 -251 -159 -385 -240 -22 -13 -66
-41 -98 -61 -32 -20 -126 -79 -210 -131 -84 -51 -186 -115 -227 -141 -41 -26
-122 -78 -180 -114 -58 -37 -184 -115 -280 -175 -96 -59 -321 -199 -500 -310
-179 -112 -424 -264 -545 -339 -265 -163 -340 -217 -357 -257 -10 -23 -13
-135 -11 -493 2 -506 0 -490 60 -529 26 -17 130 -18 1898 -21 1028 -1 2223 1
2655 5 l785 8 32 23 c17 12 43 46 57 75 l25 52 -2 425 c-2 420 -2 426 -25 467
-12 23 -31 47 -41 53 -13 7 -477 10 -1425 10 -912 0 -1414 4 -1431 10 -22 8
-26 15 -23 42 3 31 17 42 188 156 161 108 298 195 585 375 39 24 177 111 308
193 131 82 354 221 495 310 416 260 1023 643 1152 726 102 66 155 114 185 169
l30 54 0 410 c0 369 -2 415 -18 462 -21 61 -55 98 -100 108 -17 4 -1193 9
-2612 11 -2244 3 -2587 1 -2634 -11z m4382 -268 c630 -3 689 -4 704 -20 15
-15 17 -49 18 -321 l0 -304 -24 -25 c-12 -14 -89 -67 -170 -118 -80 -51 -200
-127 -266 -169 -180 -116 -321 -205 -405 -257 -41 -25 -147 -92 -235 -148 -88
-56 -216 -137 -285 -180 -69 -43 -224 -141 -345 -218 -121 -77 -247 -157 -280
-177 -33 -21 -127 -80 -210 -132 -82 -52 -186 -116 -230 -143 -119 -72 -541
-335 -695 -434 -162 -103 -240 -174 -240 -217 0 -38 32 -89 67 -107 69 -35
112 -36 1678 -41 853 -2 1562 -7 1577 -11 14 -4 36 -16 48 -27 20 -19 21 -26
18 -273 -2 -164 -7 -258 -14 -265 -7 -7 -747 -12 -2481 -16 l-2471 -6 -18 28
c-17 25 -19 54 -21 289 -2 318 1 338 59 388 40 35 255 173 612 392 83 51 187
115 231 143 44 28 130 81 190 118 61 37 227 140 370 229 143 89 393 244 555
345 328 204 569 354 617 385 17 11 62 39 100 62 387 240 574 360 605 391 21
20 45 55 54 78 15 39 15 45 -1 77 -19 40 -58 63 -125 71 -25 4 -765 9 -1645
12 -1110 5 -1604 10 -1613 17 -19 15 -10 513 10 554 13 27 17 28 98 33 87 5
2932 3 4163 -3z"/>
<path d="M18330 4190 c-327 -5 -357 -6 -383 -24 -62 -42 -61 -35 -68 -561 -3
-264 -6 -1112 -7 -1885 -1 -1492 -1 -1494 46 -1574 33 -57 36 -57 686 -54 667
3 636 0 674 80 19 40 21 64 23 348 2 384 5 427 34 456 l21 21 1140 7 c1441 8
1551 12 1781 52 157 27 347 84 429 130 204 112 338 321 398 617 25 124 38 425
38 912 0 437 -2 479 -22 600 -45 267 -128 435 -295 593 -67 63 -105 90 -187
131 -184 91 -384 126 -851 151 -189 10 -2751 10 -3457 0z m3600 -263 c271 -39
493 -88 595 -132 202 -87 327 -303 356 -615 17 -177 22 -814 9 -1035 -18 -308
-42 -411 -129 -560 -80 -137 -182 -205 -381 -253 -48 -12 -265 -38 -390 -46
-41 -3 -680 -8 -1420 -11 -740 -3 -1360 -8 -1378 -11 -18 -3 -48 -18 -67 -35
-59 -52 -63 -78 -69 -439 -7 -403 -8 -415 -50 -430 -17 -6 -114 -13 -216 -15
-102 -3 -282 -7 -401 -10 -192 -5 -218 -4 -233 10 -15 16 -16 155 -14 1779 3
1652 4 1764 20 1788 13 19 29 28 55 31 21 3 841 3 1823 2 1529 -2 1800 -5
1890 -18z"/>
<path d="M19410 3220 c-282 -6 -296 -9 -337 -69 l-23 -34 0 -530 0 -529 39
-39 c39 -39 39 -39 122 -40 46 0 658 -1 1360 -1 l1276 -1 44 24 c35 19 51 37
77 89 l33 65 -6 390 c-7 504 -12 588 -37 621 -47 59 21 56 -1187 58 -608 0
-1221 -1 -1361 -4z m2246 -263 c20 -6 47 -25 58 -40 20 -27 21 -39 21 -334 l0
-306 -25 -18 c-24 -17 -80 -18 -1203 -20 -648 -1 -1180 1 -1184 4 -21 22 -31
693 -10 714 15 15 273 18 1294 15 771 -2 1021 -5 1049 -15z"/>
</g>
</svg>
