<svg xmlns="http://www.w3.org/2000/svg" viewBox="0 0 1396.95 288.65"><defs><style>.cls-1{fill:#ffffff;}</style></defs><g id="Capa_2" data-name="Capa 2"><g id="Capa_1-2" data-name="Capa 1"><polygon class="cls-1" points="309.72 138.21 309.74 138.23 417.79 288.64 469.84 288.64 363.19 140.18 445.08 42.27 445.09 42.27 445.09 42.27 445.09 42.27 445.09 42.26 445.09 0.01 291.17 0.01 291.17 42.27 389.97 42.27 309.72 138.21"/><path class="cls-1" d="M825.83,288.64V0H671.91V42.26h0l81.9,97.91L647.16,288.64h52.05l84.35-117.41V288.64ZM783.56,109.85,727,42.27h56.53Z"/><path class="cls-1" d="M904.57,288.64V171.23l84.35,117.41H1041L934.32,140.18l81.89-97.9h0V0H862.3V288.64Zm0-246.36h56.54l-56.54,67.57Z"/><path class="cls-1" d="M1396.94,42.26V0H1243V288.64h42.27V175.73L1396.94,42.27h0ZM1285.3,109.85V42.27h56.53Z"/><rect class="cls-1" x="212.24" width="42.46" height="288.65"/><path class="cls-1" d="M635.48,42.26V0h0V0H593V0H524V0H481.55V288.65H524V152.25h69v136.4h42.46V42.26ZM593,109.77H524V42.26h69Z"/><path class="cls-1" d="M1206.59,42.26V0h0V0h-42.45V0h-69V0h-42.46V288.65h42.46V152.25h69v136.4h42.45V152.25h0V109.77h0V42.26Zm-42.46,67.51h-69V42.26h69Z"/><path class="cls-1" d="M175.78,42.27V0H0V288.64H175.78V246.37h0L136,132.41l39.74-90.14ZM42.27,246.37V42.27h87.3L89.83,132.39h0v0h0l39.74,114Z"/></g></g></svg>