<svg xmlns="http://www.w3.org/2000/svg" xmlns:xlink="http://www.w3.org/1999/xlink" preserveAspectRatio="xMidYMid meet" version="1.0" viewBox="33.4 238.1 433.3 24.1" zoomAndPan="magnify" style="fill: rgb(0, 0, 0);" role="img" aria-label="Line stroke illustration"><g id="__id18_swtawsoxvk" style="fill: rgb(255, 255, 255);"><path d="M428.2,259.9c-0.2,0.3-0.2,0.7,0.2,1.2c0.3,0.3,0.7,0.5,1.1,0.7c1,0.4,1.4-0.4,1.9-0.8 c0.1-0.1,0.3-0.2,0.4-0.2C430.7,259.9,429.5,259.6,428.2,259.9z" style="fill: inherit;"></path><path d="M464.9,246.2c0.4-0.8,0.3-1.6-0.8-1.2c-1.3,0.4-2.3-0.1-3.6-0.5c-2.8-1-5.8-2.3-8.7-2.3 c-3.1,0-5.4-1.6-8.1-2.1c-3.2-0.6-6.7-0.9-9.7-0.1c-3.1,0.8-6.2-0.6-8.8,0.5c-3.3,1.4-6.6,0.5-9.7,0.2c-2.9-0.3-5.7,1.5-8.7-0.3 c-0.9-0.6-3.1,1.3-4.7,1.5c-2.5,0.3-5.1,0.5-7.5,0c-3-0.7-5.9-0.5-9-0.3c-7.8,0.4-15.6,0.6-23.4,0.7c-4.2,0.1-8.3-0.4-12.5-0.2 c-9.6,0.6-19.2,0.3-28.7,0.4c-8.4-0.9-16.8,0.1-25.2,0.5c-5.9,0.3-11.8-0.8-17.6,1.2c-2-0.6-3.9-0.5-6-0.5 c-9.5,0.3-19.1,0.4-28.6,0.5c-4,0-8-0.4-11.9,0.8c-2.4,0.8-4.9,0.6-7.4-0.3c-2.7-1-5.4-0.7-7.9,0.9c-0.7,0.2-1.5,0.6-2.2,0.4 c-6.5-1.6-13-1-19.5,0c-1.2,0.2-2.8,0.7-3.7,0.2c-2.8-1.5-5.4-0.2-8-0.2c-2.8,0-5.5-0.3-8.3,0.4c-1.4,0.4-3,0.5-4.5,0.3 c-5-0.5-10-0.3-15,0c-6.8,0.3-13.6-0.1-20.4,0.6c-9,1-18.1,1.2-27.1,1.2c-18.9,0-37.7,1.9-56.6,2.7c-2,0.1-4.5-0.1-5.9,0.9 c-3.2,2.4-6.9,1.9-11.8,3.1c23.2,0.5,44.7,2.6,66.4,1.6c10-0.5,20.1,0.3,30.1,0.6c3.8,0.1,7.6,0.7,11.3,0.5 c8.8-0.3,17.5-1.3,26.3,0.2c1.9,0.3,4.1,0.2,6-0.2c2.8-0.5,5.6-0.3,8.3,0.2c3.1,0.7,5.8-2.1,8.9-0.5c5.5-0.7,11,1,16.5-0.6 c7.9-0.1,15.8,2.1,23.8,0.5c2.7,1.3,5.5-0.2,8.1,0c2.9,0.2,5.8,0.5,8.8,0.6c4.1,0.1,7.9-1,11.9-1.1c5.6-0.2,11.1,2.8,16.8,0.2 c3.7,1.6,7.4,0.1,11.1-0.1c2-0.1,4.3-0.4,5.9,0.5c2.9,1.6,5.7,0.9,8.6,0.6c1-0.1,2.1-0.9,2.9-0.6c4.8,1.8,9.3-0.5,14-0.6 c5.1,1.5,10.2,2.1,15.4,0.2c4.1-0.6,8.2,0.8,12.3,0c1.1-0.2,2.4,0.5,3.6,0.8c1.2,0.2,2.5,0.7,3.7,0.5c3.6-0.7,7,0.5,10.5,0.4 c3.4-0.1,6.8-0.6,10.3-0.3c3.2,0.3,6.6,0.9,9.6,0.6c3.5-0.3,7.1,0.2,10.5-0.3c5.3-0.8,10.5-1,15.8-0.3c5.4,0.6,11.1-1.2,16.3,1.8 c0.4-0.2,0.8-0.3,1.2-0.4c0.1-0.3,0.4-0.5,0.6-0.6c0.6-0.3,1.4-0.3,2.1-0.3c0.4,0,0.9,0.3,1.2,0.6c0.7,0.8,0.2,1-0.3,1.2 c0.2,0.2,0.4,0.3,0.6,0.5c0.3,0.3,1.5-0.2,2-0.6c1-0.9,1.8-1.4,3.3-1.2c3.2,0.3,6.3,0,9.5,0.8c4.5,1.1,8.9-0.2,13.3-1.5 c1.3-0.4,2.4-1.3,2.1-2.7c-0.8-3.5,3-2.7,4-4.5C465.3,249.9,463.6,248.5,464.9,246.2z M224.1,253.7c-0.3-0.2-0.5-0.5-0.8-0.7 C223.6,253.2,223.8,253.5,224.1,253.7C224.1,253.7,224.1,253.7,224.1,253.7z M331.7,252.1c-0.4,0.2-0.8,0.4-1.1,0.6c0,0,0,0,0,0 C330.9,252.5,331.3,252.3,331.7,252.1z M267.9,252.8C267.9,252.8,267.9,252.8,267.9,252.8c0.9-0.1,1.8-0.1,2.8-0.2 C269.6,252.7,268.8,252.8,267.9,252.8z M251.3,253.5c-0.3-0.2-0.6-0.5-0.8-0.6C250.8,253,251.1,253.3,251.3,253.5 C251.3,253.5,251.3,253.5,251.3,253.5z" style="fill: inherit;"></path><path d="M389.9,238.9c0.6,0.1,1.3,0,2,0c0-0.3,0-0.6-0.1-0.6c-0.7-0.1-1.3-0.2-2-0.1 C389.2,238.3,389.2,238.7,389.9,238.9z" style="fill: inherit;"></path><path d="M399.6,238.3c-0.2-0.1-0.4-0.1-0.6-0.2c-0.2,0-0.4,0.1-0.6,0.1c0.3,0.1,0.5,0.3,0.8,0.3 C399.3,238.6,399.4,238.4,399.6,238.3z" style="fill: inherit;"></path><path d="M383.5,238.4c-0.2-0.1-0.4-0.3-0.5-0.3c-0.4,0-0.9,0.1-1.3,0.1c0,0.1,0.1,0.3,0.1,0.3 C382.4,238.5,382.9,238.4,383.5,238.4z" style="fill: inherit;"></path></g></svg>