<?xml version="1.0" standalone="no"?>
<!DOCTYPE svg PUBLIC "-//W3C//DTD SVG 20010904//EN"
 "http://www.w3.org/TR/2001/REC-SVG-20010904/DTD/svg10.dtd">
<svg version="1.0" xmlns="http://www.w3.org/2000/svg"
 width="1129.000000pt" height="221.000000pt" viewBox="0 0 1129.000000 221.000000"
 preserveAspectRatio="xMidYMid meet">

<g transform="translate(0.000000,221.000000) scale(0.100000,-0.100000)"
fill="#9dd2fc" stroke="none">
<path d="M143 2095 c-21 -9 -35 -23 -40 -42 -4 -15 -7 -453 -7 -973 0 -708 3
-950 12 -967 9 -15 25 -24 58 -29 25 -3 494 -4 1042 -1 1050 6 1129 9 1253 54
77 27 151 84 187 144 72 119 94 217 96 419 1 183 -32 298 -115 402 -35 45 -36
55 -4 146 63 180 56 451 -14 605 -69 151 -178 213 -426 242 -175 21 -1994 21
-2042 0z m2086 -144 c238 -40 306 -135 306 -431 0 -159 -19 -237 -72 -299 -18
-22 -36 -53 -39 -70 -6 -28 -1 -37 59 -94 112 -107 146 -226 127 -449 -12
-141 -17 -162 -46 -219 -44 -89 -115 -129 -269 -154 -22 -4 -494 -7 -1050 -7
l-1010 0 -3 858 c-2 810 -1 860 15 872 25 18 1870 11 1982 -7z"/>
<path d="M710 1667 c-41 -21 -52 -73 -48 -240 l3 -149 28 -24 28 -24 677 0
c438 0 690 4 714 11 62 17 70 43 66 230 -3 149 -4 160 -26 181 l-23 23 -697 2
c-550 2 -702 0 -722 -10z m1300 -140 c23 -12 25 -18 25 -82 l0 -70 -610 0
-610 0 -9 36 c-13 52 0 108 27 119 12 5 276 9 587 9 436 1 571 -2 590 -12z"/>
<path d="M689 921 c-24 -19 -24 -23 -24 -188 0 -192 7 -216 67 -226 18 -2 335
-4 703 -3 620 1 673 2 698 18 40 27 49 75 45 236 -3 137 -4 145 -27 163 -22
18 -49 19 -731 19 -682 0 -709 -1 -731 -19z m1335 -130 c13 -11 16 -28 14 -80
l-3 -66 -602 -3 -602 -2 -17 25 c-22 33 -14 113 12 132 28 21 1173 15 1198 -6z"/>
<path d="M2963 2095 c-17 -7 -36 -22 -42 -34 -7 -12 -11 -104 -11 -249 0 -220
1 -230 21 -248 20 -18 48 -19 698 -21 372 -2 682 -5 689 -8 30 -11 5 -36 -105
-104 -65 -41 -167 -105 -228 -144 -60 -38 -193 -122 -295 -184 -102 -63 -201
-125 -220 -137 -19 -13 -134 -85 -255 -161 -121 -76 -239 -151 -262 -167 l-43
-29 0 -244 0 -245 27 -17 c26 -17 98 -18 1288 -18 693 0 1272 3 1287 8 55 15
63 49 63 282 0 185 -2 214 -18 238 l-17 27 -690 0 c-490 0 -691 3 -696 11 -13
21 25 47 553 378 745 466 818 514 847 554 20 27 21 42 21 240 0 238 -6 267
-60 278 -17 4 -590 7 -1275 7 -1038 1 -1250 -1 -1277 -13z m2444 -134 l28 -7
2 -150 c2 -82 0 -154 -5 -160 -4 -6 -43 -33 -87 -61 -121 -75 -518 -326 -710
-448 -93 -60 -231 -146 -305 -193 -74 -46 -182 -115 -240 -151 -58 -37 -131
-83 -164 -102 -85 -49 -116 -81 -116 -118 0 -22 7 -35 27 -48 25 -17 78 -18
793 -19 422 -1 776 -5 788 -8 21 -7 22 -12 22 -139 l0 -132 -1195 0 -1195 0
-10 31 c-15 43 -6 269 10 290 15 17 85 64 175 116 33 19 96 58 140 85 44 28
121 75 170 106 50 31 135 85 190 120 111 71 395 249 495 310 36 22 101 63 145
92 44 28 120 76 169 105 142 86 174 132 125 176 -20 18 -52 19 -823 24 l-801
5 2 129 c1 113 3 132 19 143 15 11 227 13 1171 13 633 -1 1164 -5 1180 -9z"/>
<path d="M5833 2090 c-18 -11 -36 -32 -40 -47 -10 -36 -10 -1859 0 -1895 16
-59 11 -58 341 -58 295 0 303 1 322 21 17 19 19 41 22 219 l3 198 37 6 c58 9
1103 7 1145 -3 21 -5 42 -12 45 -16 4 -4 9 -94 12 -200 4 -169 7 -197 23 -212
16 -17 40 -18 310 -15 317 4 327 6 349 60 7 18 8 97 5 232 -5 161 -11 222 -27
284 -19 75 -62 166 -78 166 -4 0 -13 9 -20 20 -14 24 -9 38 43 105 21 28 40
73 55 126 43 158 38 502 -10 683 -26 99 -41 127 -98 189 -79 84 -170 117 -392
142 -111 12 -304 15 -1075 15 -917 0 -941 -1 -972 -20z m2026 -138 c121 -15
223 -37 262 -57 44 -24 108 -104 125 -159 40 -130 44 -551 7 -650 -18 -50 -70
-110 -136 -159 -30 -23 -37 -34 -37 -62 0 -27 7 -40 36 -62 79 -60 106 -88
125 -124 25 -50 36 -169 31 -331 l-4 -126 -204 -1 c-202 0 -204 0 -209 22 -3
12 -6 102 -7 200 l-3 179 -28 24 -28 24 -689 0 -689 0 -28 -24 -28 -24 -3
-201 -4 -201 -211 3 -212 2 -3 863 c-2 847 -2 863 17 870 37 13 1805 8 1920
-6z"/>
<path d="M6475 1619 c-44 -3 -87 -9 -96 -13 -28 -13 -36 -82 -34 -307 1 -249
7 -274 64 -288 20 -5 335 -8 703 -6 608 2 669 4 693 19 14 9 30 28 35 42 13
33 13 475 0 509 -5 14 -22 30 -37 36 -30 12 -1177 19 -1328 8z m1224 -144 c15
-15 25 -169 16 -258 l-7 -77 -598 0 c-540 0 -599 2 -611 16 -16 19 -25 198
-14 270 5 33 12 48 28 54 31 13 1173 8 1186 -5z"/>
<path d="M9083 2090 c-340 -5 -374 -7 -390 -23 -17 -17 -18 -70 -21 -940 -2
-971 -1 -1006 42 -1029 26 -14 574 -12 612 2 13 5 29 21 34 35 6 15 10 102 10
195 0 93 3 175 6 184 6 14 64 16 553 16 621 1 792 8 933 43 192 47 281 132
329 313 18 69 22 116 26 384 4 246 2 323 -11 399 -44 273 -200 393 -541 416
-117 8 -1105 11 -1582 5z m1467 -130 c74 -5 144 -11 155 -14 11 -3 52 -12 92
-20 88 -19 111 -28 162 -61 51 -31 95 -108 116 -197 22 -97 23 -612 2 -715
-39 -182 -109 -239 -332 -268 -27 -4 -364 -8 -748 -10 l-699 -2 -26 -27 c-27
-26 -27 -27 -30 -204 -1 -97 -4 -186 -7 -197 -4 -20 -11 -21 -212 -20 l-208 0
-6 55 c-4 45 -5 1475 0 1628 1 34 5 44 22 51 30 11 1553 12 1719 1z"/>
<path d="M9370 1622 c-90 -5 -110 -12 -121 -40 -6 -16 -10 -129 -10 -282 1
-247 2 -256 22 -272 20 -17 67 -18 684 -18 745 0 697 -5 715 75 6 23 7 136 3
269 -8 282 1 266 -145 267 -323 3 -1110 4 -1148 1z m1127 -138 c12 -3 25 -13
28 -22 12 -32 5 -306 -8 -314 -16 -10 -1134 -10 -1141 0 -4 7 -10 240 -7 310
l1 32 553 0 c303 0 562 -3 574 -6z"/>
</g>
</svg>
